SplineFontDB: 1.0
FontName: MnSymbolS-Bold8
FullName: MnSymbolS-Bold8
FamilyName: MnSymbolS-Bold8
Weight: Regular
Copyright: Generated from MetaFont bitmap by mftrace 1.1.17, http://www.xs4all.nl/~hanwen/mftrace/ 
Version: 001.001
ItalicAngle: 0
UnderlinePosition: -100
UnderlineWidth: 50
Ascent: 800
Descent: 200
NeedsXUIDChange: 1
UniqueID: 4109127
OS2TypoAscent: 0
OS2TypoAOffset: 1
OS2TypoDescent: 0
OS2TypoDOffset: 1
OS2TypoLinegap: 0
OS2WinAscent: 0
OS2WinAOffset: 1
OS2WinDescent: 0
OS2WinDOffset: 1
HheadAscent: 0
HheadAOffset: 1
HheadDescent: 0
HheadDOffset: 1
OS2Vendor: 'PfEd'
Encoding: Custom
UnicodeInterp: none
NameList: Adobe Glyph List
DisplaySize: -24
AntiAlias: 1
FitToEm: 1
WinInfo: 54 18 9
BeginPrivate: 3
lenIV 1 4
BlueValues 2 []
ForceBold 5 false
EndPrivate
BeginChars: 256 28
StartChar: A
Encoding: 65 65 2
Width: 979
Flags: HMW
Back
142.225 116.662 m 0
 149.452 110.756 157.99 105.912 167.488 102.455 c 0
 175.332 99.5996 183.828 97.6846 192.766 96.8076 c 0
 244.73 91.7109 329.679 201.066 379.158 262.589 c 0
 479.716 387.623 567.716 518.253 642.061 651.664 c 1
 719.777 651.664 l 1
 718.192 648.077 716.485 644.532 714.658 641.06 c 0
 624.164 468.985 516.315 305.581 393.805 153.251 c 0
 311.825 51.3164 220.116 -58.2656 146.488 -51.0459 c 0
 135.173 -49.9365 124.381 -47.5176 114.242 -43.8281 c 0
 101.969 -39.3604 90.6484 -33.0381 80.5371 -24.7764 c 0
 51.1885 -0.793945 45.8955 20.165 41.583 38.0342 c 0
 35.0908 64.9443 49.2793 113.16 71.0977 142.662 c 0
 92.916 172.164 114.502 172.344 120.635 144.925 c 0
 122.675 135.804 129.773 126.836 142.225 116.662 c 0
850.586 241.729 m 0
 858.602 188.783 872.094 137.964 890.854 89.9805 c 0
 891.65 87.9404 892.393 86.4834 893.205 85.0732 c 0
 899.391 74.3613 910.332 69.4883 918.078 69.1182 c 0
 922.658 68.9004 917.051 69.373 907.283 64.4453 c 1
 955.963 89.0059 l 2
 994.111 108.252 1028.38 108.9 1032.45 90.4521 c 0
 1036.52 72.0039 1008.86 41.4111 970.715 22.1641 c 2
 922.033 -2.39648 l 2
 880.59 -23.3057 846.371 -28.457 823.279 -27.3545 c 0
 804.369 -26.4521 773.816 -20.0176 758.158 7.10449 c 0
 756.713 9.60938 755.393 12.1982 753.975 15.8252 c 0
 734.416 65.8535 720.346 118.83 711.979 174.109 c 0
 687.557 335.433 673.971 500.567 671.305 668.614 c 0
 670.982 688.855 701.857 719.365 740.221 736.716 c 0
 778.584 754.066 809.979 751.72 810.301 731.478 c 0
 812.941 565.102 826.393 401.545 850.586 241.729 c 0
411.592 159.921 m 2
 382.438 159.921 378.715 181.424 403.285 207.92 c 0
 427.857 234.416 471.461 255.919 500.617 255.919 c 2
 825.795 255.919 l 2
 854.949 255.919 858.672 234.415 834.102 207.92 c 0
 809.529 181.424 765.926 159.92 736.77 159.92 c 2
 411.592 159.921 l 2
EndSplineSet
Fore
671 669 m 0
 671 701 742 748 786 748 c 0
 801 748 810 743 810 731 c 0
 813 565 826 402 851 242 c 0
 861 170 886 98 893 85 c 0
 899 75 909 70 917 69 c 1
 956 89 l 2
 976 99 994 104 1008 104 c 0
 1021 104 1033 99 1033 87 c 0
 1033 68 1006 40 971 22 c 2
 922 -2 l 2
 892 -18 858 -27 828 -27 c 0
 794 -27 766.057 -14.978 754 16 c 0
 736.084 62.0327 723 110 714 160 c 1
 412 160 l 2
 407 160 403 160 400 161 c 1
 394 153 l 2
 314 55 226 -51 153 -51 c 0
 97 -51 40 -3 40 53 c 0
 40 103 77 165 102 165 c 0
 111 165 118 158 121 145 c 0
 125 123 164 97 196 97 c 0
 249 97 331 202 379 263 c 0
 480 388 568 518 642 652 c 1
 672 652 l 1
 672 655 671 667 671 669 c 0
701 256 m 1
 688 358 679 462 674 567 c 1
 612 457 543 351 468 249 c 1
 480 254 491 256 501 256 c 2
 701 256 l 1
EndSplineSet
EndChar
StartChar: B
Encoding: 66 66 3
Width: 791
Flags: HMW
Back
123.587 192.878 m 0
 155.982 322.46 179.341 451.972 193.472 580.437 c 1
 158.752 562.919 l 2
 120.604 543.673 86.3398 543.024 82.2686 561.473 c 0
 78.1973 579.921 105.854 610.514 144.001 629.76 c 2
 260.109 688.34 l 2
 281.379 699.071 299.734 703.995 315.268 703.136 c 0
 330.801 702.277 337.997 695.939 336.893 684.094 c 0
 323.31 538.44 297.969 391.154 261.059 243.512 c 0
 243.719 174.153 213.829 106.456 174.6 43.7832 c 0
 158.505 18.0703 117.178 -8.51465 82.3535 -15.5566 c 0
 47.5283 -22.5996 32.3271 -7.44629 48.4219 18.2666 c 0
 68.4023 50.1875 103.376 112.031 123.587 192.878 c 0
452.575 79.3223 m 0
 495.97 79.3223 532.093 87.583 553.535 95.2598 c 0
 563.535 98.8398 570.621 102.293 575.366 105.033 c 0
 593.199 115.328 600.864 130.664 602.511 133.562 c 0
 606.784 141.081 610.807 150.511 613.559 161.518 c 0
 622.619 197.76 618.275 229.802 603.073 256.135 c 0
 564.639 322.707 462.494 346.643 364.573 330.105 c 0
 332.359 324.665 319.14 336.86 331.53 360.587 c 0
 343.922 384.313 375.908 408.052 411.479 419.918 c 0
 519.523 455.964 577.894 478.106 615.396 499.758 c 0
 633.58 510.257 634.386 513.274 635.703 518.544 c 0
 640.396 537.313 638.123 554.96 629.761 569.445 c 0
 609.843 603.945 562.407 613.443 527.15 607.674 c 0
 519.371 606.4 508.955 604.386 496.121 599.992 c 0
 485.208 596.256 476.656 592.237 467.792 587.12 c 0
 405.58 551.201 309.384 436.812 261.059 243.512 c 0
 255.383 220.808 219.982 191.04 182.04 177.064 c 0
 144.099 163.09 117.911 170.174 123.587 192.878 c 0
 154.157 315.16 235.36 528.952 434.873 644.141 c 0
 460.004 658.649 489.322 672.969 523.181 684.561 c 0
 546.931 692.691 570.188 698.479 592.702 702.163 c 0
 680.549 716.538 741.434 687.9 764.808 647.414 c 0
 776.85 626.555 781.006 600.506 773.175 569.179 c 0
 766.009 540.514 737.352 494.143 648.315 442.737 c 0
 635.546 435.365 621.857 428.181 607.651 421.239 c 1
 668.107 406.183 714.043 375.808 738.12 334.104 c 0
 757.013 301.379 763.159 260.669 751.03 212.151 c 0
 746.945 195.813 740.546 179.715 731.34 163.519 c 0
 697.195 103.443 636.747 64.4443 608.286 48.0127 c 0
 582.042 32.8604 555.563 21.0742 530.373 12.0566 c 0
 459.641 -13.2676 397.892 -17.2725 363 -17.2725 c 0
 299.241 -17.2725 244.153 -2.60254 198.395 24 c 0
 180.794 34.2324 194.176 62.5176 228.265 87.1357 c 0
 262.354 111.754 304.304 123.43 321.904 113.196 c 0
 370.98 84.665 420.158 79.3223 452.575 79.3223 c 0
EndSplineSet
Fore
777 600 m 0
 777 564 763 497 608 421 c 1
 710 396 758 330 758 258 c 0
 758 113 567 -17 363 -17 c 0
 299 -17 244 -3 198 24 c 0
 193 27 191 32 191 37 c 0
 191 69 261 117 305 117 c 0
 329 117 360 79 453 79 c 0
 508 79 555 93 575 105 c 0
 603 121 618 158 618 196 c 0
 618 297 516 335 424 335 c 0
 380 335 365 329 351 329 c 0
 335 329 327 335 327 345 c 0
 327 349 328 355 332 361 c 0
 368 430 504 436 615 500 c 0
 627 507 638 509 638 538 c 0
 638 582 597 609 547 609 c 0
 419 609 307 427 261 244 c 0
 243.439 174.139 214 106 175 44 c 0
 154 11 99 -17 67 -17 c 0
 51 -17 42 -11 42 -0 c 0
 42 19 93 72 124 193 c 0
 156 322 179 452 193 580 c 1
 159 563 l 2
 139 553 121 548 107 548 c 0
 94 548 82 553 82 565 c 0
 82 584 108 612 144 630 c 2
 260 688 l 2
 281 699 299 703 312 703 c 0
 328 703 337 697 337 686 c 0
 337 673 326 584 322 558 c 1
 462 697 607 706 637 706 c 0
 720 706 777 664 777 600 c 0
EndSplineSet
EndChar
StartChar: C
Encoding: 67 67 4
Width: 653
Flags: HMW
Back
483.362 532.476 m 0
 491.706 551.72 492.659 575.91 484.42 590.181 c 0
 479.099 599.398 471.761 603.108 466.351 604.415 c 0
 459.93 605.966 453.598 606.621 448.024 606.621 c 0
 412.997 606.621 354.62 601.745 306.51 573.969 c 0
 264.992 549.999 201.026 488.608 170.946 368.289 c 0
 148.309 277.737 168.571 209.555 191.269 170.241 c 0
 227.979 106.654 285.49 85.1104 325.408 78.7725 c 0
 373.189 71.1846 412.496 82.9502 434.168 92.7256 c 0
 439.45 95.1084 444.443 97.6729 449.427 100.55 c 0
 470.092 112.481 485.732 127.029 496.502 138.326 c 0
 521.91 164.979 565.859 186.1 594.604 185.471 c 0
 623.35 184.841 626.058 162.699 600.649 136.047 c 0
 568.244 102.054 527.646 69.6836 482.346 43.5293 c 0
 470.046 36.4277 453.961 27.7881 435.015 19.2422 c 0
 395.146 1.25879 310.189 -30.9082 220.851 -16.7217 c 0
 172.47 -9.03906 100.256 15.998 56.2217 92.2715 c 0
 21.2051 152.925 12.0391 231.91 33.4746 317.655 c 0
 80.0098 503.796 210.438 594.528 273.59 630.989 c 0
 319.447 657.465 412.614 703.217 537.601 703.216 c 0
 551.967 703.216 564.795 701.623 576.441 698.81 c 0
 594.93 694.344 609.854 684.801 619.467 668.149 c 0
 629.713 650.403 635.988 615.798 617.01 572.022 c 0
 605.439 545.333 591.383 518.79 574.742 492.571 c 0
 558.39 466.806 516.951 440.335 482.247 433.483 c 0
 447.542 426.632 432.648 441.981 449.001 467.747 c 0
 462.059 488.318 473.639 510.046 483.362 532.476 c 0
EndSplineSet
Fore
442 449 m 0
 442 467 490 521 490 567 c 0
 490 604 462 607 448 607 c 0
 413 607 355 602 307 574 c 0
 228 529 161 406 161 291 c 0
 161 159 250 76 355 76 c 0
 405 76 456 96 497 138 c 0
 522 165 565 185 593 185 c 0
 605 185 618 182 618 168 c 0
 618 131 445 -20 266 -20 c 0
 120 -20 22 82 22 228 c 0
 22 302 56 505 274 631 c 0
 319 657 413 703 538 703 c 0
 617 703 629 659 629 629 c 0
 629 589 605.839 541.103 575 493 c 0
 553.89 460.071 499 432 467 432 c 0
 451 432 442 438 442 449 c 0
EndSplineSet
EndChar
StartChar: D
Encoding: 68 68 5
Width: 948
Flags: HMW
Back
289.015 317.654 m 0
 313.288 414.752 326.369 511.811 327.881 606.754 c 0
 328.207 627.286 359.607 657.752 397.971 674.758 c 0
 436.334 691.764 467.204 688.902 466.877 668.37 c 0
 465.313 570.181 451.8 469.545 426.486 368.289 c 0
 401.172 267.032 364.232 165.828 316.114 66.4277 c 0
 304.144 41.6982 264.846 13.5439 228.397 3.58301 c 0
 191.948 -6.37891 172.082 5.60742 184.053 30.3369 c 0
 229.427 124.068 264.741 220.559 289.015 317.654 c 0
360.822 96.6797 m 2
 496.895 96.6797 608.776 128.863 675.614 167.452 c 0
 707.056 185.604 771.609 229.573 795.103 323.544 c 0
 810.975 387.036 805.193 436.582 782.914 475.172 c 0
 736.137 556.196 614.882 589.265 460.317 589.265 c 2
 352.592 589.265 l 2
 323.255 589.265 319.511 610.902 344.233 637.562 c 0
 368.956 664.223 412.829 685.859 442.166 685.859 c 2
 549.892 685.859 l 2
 720.581 685.859 862.27 649.604 917.961 553.142 c 0
 944.389 507.364 951.055 448.104 932.573 374.178 c 0
 905.319 265.158 821.427 175.611 708.534 110.432 c 0
 562.521 26.1309 396.683 0.0849609 271.248 0.0849609 c 2
 135.674 0.0849609 l 2
 106.338 0.0849609 102.593 21.7217 127.315 48.3818 c 0
 152.038 75.042 195.912 96.6797 225.248 96.6797 c 2
 360.822 96.6797 l 2
180.927 562.904 m 0
 173.622 558.687 166.768 545.259 164.141 538.947 c 0
 162.86 535.872 160.971 530.928 159.245 524.025 c 0
 153.568 501.322 118.169 471.554 80.2266 457.578 c 0
 42.2842 443.604 16.0977 450.688 21.7734 473.392 c 0
 23.2588 479.334 25.7451 488.016 30.0068 498.255 c 0
 48.6172 542.972 88.9971 585.854 148.008 619.925 c 0
 169.511 632.34 194.513 644.135 223.605 654.173 c 0
 270.386 670.313 337.769 685.859 442.166 685.859 c 0
 471.502 685.859 475.247 664.223 450.524 637.562 c 0
 425.802 610.902 381.928 589.265 352.592 589.265 c 0
 284.61 589.265 230.684 581.382 197.209 569.832 c 0
 188.059 566.675 182.815 563.994 180.927 562.904 c 0
EndSplineSet
Fore
361 97 m 2
 497 97 609 129 676 167 c 0
 768 221 804 311 804 386 c 0
 804 467 764 588 463 589 c 1
 448 396 390 227 330 97 c 1
 361 97 l 2
943 453 m 0
 943 195 626 0 271 0 c 2
 136 0 l 2
 119 0 111 7 111 17 c 0
 111 49 173 89 214 96 c 1
 271 228 322 398 327 589 c 1
 241 586 193.031 569.946 181 563 c 0
 174.018 558.969 164 544 159 524 c 0
 152 494 89 450 46 450 c 0
 30 450 21 456 21 468 c 0
 21 469 21 471 22 473 c 1
 37 533 126 686 442 686 c 2
 550 686 l 2
 811 686 943 603 943 453 c 0
EndSplineSet
EndChar
StartChar: E
Encoding: 69 69 6
Width: 645
Flags: HMW
Back
514.921 556.136 m 2
 518.416 563.295 517.636 562.717 517.939 564.242 c 0
 518.441 566.758 518.363 566.492 518.481 568.459 c 0
 518.834 574.336 517.43 580.879 514.253 586.381 c 0
 508.246 596.786 499.006 600.624 492.427 601.652 c 0
 471.063 604.989 449.319 606.621 427.551 606.621 c 0
 391.455 606.621 362.162 600.239 344.325 594.284 c 0
 334.375 590.963 327.978 587.815 324.539 585.831 c 0
 316.599 581.246 309.478 573.103 303.587 561.394 c 0
 300.781 555.816 298.168 549.095 296.247 541.412 c 0
 290.847 519.81 293.272 501.513 302.219 486.016 c 0
 325.949 444.911 396.09 425.568 474.092 425.569 c 0
 503.429 425.569 507.173 403.932 482.45 377.271 c 0
 457.729 350.611 413.854 328.975 384.519 328.975 c 0
 294.805 328.974 200.791 349.812 167.172 408.046 c 0
 154.558 429.896 150.407 457.305 158.775 490.778 c 0
 161.773 502.769 166.161 514.664 172.19 526.648 c 0
 201.655 585.213 259.985 624.588 291.619 642.852 c 0
 314.853 656.265 342.185 669.114 373.48 679.562 c 0
 404.085 689.777 456.067 703.216 517.125 703.216 c 0
 544.723 703.216 571.291 701.159 596.79 697.176 c 0
 619.514 693.627 638.364 683.293 649.3 664.351 c 0
 655.255 654.037 658.235 642.042 657.408 628.254 c 0
 657.284 626.177 656.511 620.052 656.01 617.536 c 0
 651.937 597.107 641.81 583.677 639.916 579.8 c 2
 638.616 577.807 l 2
 621.739 551.941 580.081 525.706 545.628 519.246 c 0
 511.175 512.785 496.911 528.535 513.788 554.4 c 2
 514.921 556.136 l 2
257.046 298.057 m 0
 244.495 290.812 235.206 283.022 230.815 279.073 c 0
 196.229 247.972 184.436 209.337 180.811 194.839 c 0
 175.413 173.247 177.935 154.424 187.156 138.451 c 0
 209.647 99.4932 271.815 79.3223 340.526 79.3223 c 0
 392.227 79.3223 428.101 96.459 446.376 107.011 c 0
 460.783 115.328 475.774 126.177 492.033 141.888 c 0
 519.494 168.421 563.523 187.85 590.314 185.255 c 0
 617.105 182.66 616.562 159.021 589.103 132.486 c 0
 562.883 107.151 526.526 77.2588 479.295 49.9902 c 0
 439.219 26.8516 350.533 -17.2725 250.951 -17.2725 c 0
 166.654 -17.2725 83.5332 6.05176 52.1094 60.4814 c 0
 39.2734 82.7148 34.9004 110.45 43.3389 144.204 c 0
 56.3301 196.169 87.5205 247.136 140.821 295.065 c 0
 168.609 320.054 197.577 339.75 224.126 355.077 c 0
 311.314 405.415 401.258 425.569 474.092 425.569 c 0
 503.429 425.569 507.173 403.932 482.45 377.271 c 0
 457.728 350.611 413.854 328.974 384.518 328.975 c 0
 327.545 328.975 282.629 312.827 257.046 298.057 c 0
EndSplineSet
Fore
507 535 m 0
 507 551 518 553 518 570 c 0
 518 601 488 607 428 607 c 0
 381 607 342 596 325 586 c 0
 308 576 294 548 294 520 c 0
 294 444 400 426 474 426 c 0
 490 426 499 419 499 408 c 0
 499 377 428 329 385 329 c 0
 243 329 178 239 178 173 c 0
 178 113 248 79 341 79 c 0
 401 79 450.711 102.299 492 142 c 0
 518 167 558 185 585 185 c 0
 602 185 610 179 610 168 c 0
 610 159 603 146 589 132 c 0
 515 61 386 -17 251 -17 c 0
 162 -17 39 12 39 110 c 0
 39 160 77 272 228 357 c 1
 185 377 154 408 154 457 c 0
 154 581 329 703 517 703 c 0
 623 703 639 682 649 664 c 0
 655 654 658 643 658 632 c 0
 658 571 582 518 531 518 c 0
 516 518 507 524 507 535 c 0
EndSplineSet
EndChar
StartChar: F
Encoding: 70 70 7
Width: 858
Flags: HMW
Back
254.153 65.4434 m 0
 257.268 65.5381 250.568 64.4551 244.155 60.7529 c 1
 244.158 60.7549 242.011 59.5312 240.876 58.6377 c 1
 245.897 62.5947 253.938 72.9824 258.949 81.1104 c 0
 305.016 155.826 344.497 233.733 376.469 313.455 c 0
 415.562 410.935 442.152 510.533 455.228 609.28 c 0
 458.089 630.891 491.461 661.101 529.719 676.713 c 0
 567.977 692.324 596.703 687.455 593.842 665.845 c 0
 580.207 562.871 552.453 458.484 511.005 355.133 c 0
 477.257 270.979 435.325 188.039 385.584 107.363 c 0
 358.901 64.0869 324.52 36.8457 315.823 29.9932 c 0
 301.784 18.9307 289.21 10.7383 277.074 3.73242 c 0
 238.403 -18.5947 200.268 -30.124 168.278 -31.0947 c 0
 85.625 -33.6006 40.1846 2.92188 19.416 27.5859 c 0
 7.56055 41.665 27.5508 71.4658 64.0371 94.1045 c 0
 100.523 116.744 139.758 123.691 151.613 109.612 c 0
 179.486 76.5117 219.441 64.3906 254.153 65.4434 c 0
839.604 584.195 m 0
 839.604 584.195 841.488 582.956 838.125 584.077 c 0
 824.961 588.464 797.092 589.265 751.615 589.265 c 2
 411.893 589.265 l 2
 379.025 589.265 352.438 583.443 336.181 578.154 c 0
 325.868 574.799 319.229 571.553 315.617 569.467 c 0
 303.168 562.279 296.805 550.104 293.825 544.194 c 0
 290.975 538.541 288.333 531.758 286.4 524.025 c 0
 280.725 501.322 245.324 471.554 207.382 457.579 c 0
 169.439 443.604 143.253 450.688 148.929 473.392 c 0
 151.947 485.465 156.379 497.451 162.467 509.525 c 0
 192.207 568.513 250.853 608.102 282.697 626.487 c 0
 311.538 643.138 340.449 655.343 367.398 664.111 c 0
 396.014 673.421 444.354 685.859 501.468 685.859 c 2
 841.189 685.859 l 2
 913.186 685.859 935.67 682.884 953.051 677.091 c 0
 967.215 672.371 972.279 666.274 974.65 662.164 c 0
 978.225 655.976 978.273 649.349 976.602 642.663 c 0
 970.926 619.959 935.525 590.19 897.584 576.216 c 0
 859.643 562.24 833.455 569.324 839.129 592.028 c 0
 839.133 592.037 839.604 584.195 839.604 584.195 c 0
719.836 286.294 m 1
 399.225 286.295 l 2
 370.069 286.295 366.348 307.799 390.919 334.294 c 0
 415.489 360.79 459.094 382.294 488.249 382.293 c 2
 808.859 382.293 l 2
 828.113 382.293 836.387 374.354 832.66 359.453 c 2
 828.756 343.832 l 2
 823.113 321.268 787.932 291.684 750.223 277.795 c 0
 712.514 263.906 686.488 270.947 692.129 293.511 c 2
 696.035 309.133 l 1
 713.434 320.415 732.885 324.455 739.455 318.151 c 0
 746.023 311.848 737.234 297.576 719.836 286.294 c 1
EndSplineSet
Fore
978 651 m 0
 978 616 908 569 863 569 c 0
 839 569 839 584 838 584 c 0
 825 588 797 589 752 589 c 2
 581 589 l 1
 568 522 548 453 521 382 c 1
 809 382 l 2
 825 382 834 377 834 366 c 0
 834 364 833 362 833 359 c 1
 829 344 l 2
 821 314 759 271 716 271 c 0
 701 271 692 276 691 286 c 1
 481 286 l 1
 454 227 423 167 386 107 c 0
 347 45 257 -31 160 -31 c 0
 66 -31 16 24 16 37 c 0
 16 69 87 117 130 117 c 0
 140 117 147 115 152 110 c 0
 178 79 214 66 247 65 c 1
 287 114 419 353 452 589 c 1
 412 589 l 2
 320 589 295 560 286 524 c 0
 279 494 216 450 173 450 c 0
 158 450 148 456 148 468 c 0
 148 469 148 471 149 473 c 1
 176 581 333 686 501 686 c 2
 841 686 l 2
 935 686 978 679 978 651 c 0
EndSplineSet
EndChar
StartChar: G
Encoding: 71 71 8
Width: 722
Flags: HMW
Back
561.25 543.792 m 0
 569.458 558.574 568.341 569.812 561.453 581.743 c 0
 559.055 585.896 552.95 594.518 540.832 597.53 c 0
 516.184 603.658 490.596 606.621 465.157 606.621 c 0
 384.228 606.621 333.424 587.103 306.611 571.622 c 0
 292.76 563.625 292.802 562.808 289.648 560.455 c 0
 258.402 537.139 218.605 490.401 198.822 411.267 c 0
 180.351 337.383 197.889 282.158 216.427 250.049 c 0
 253.762 185.38 316.057 167.338 359.227 165.213 c 0
 370.656 164.65 398.938 164.481 428.675 174.896 c 0
 438.612 178.377 447.075 182.425 454.439 186.677 c 0
 466.288 193.518 471.615 198.103 475.361 201.14 c 0
 501.131 222.027 534.451 261.79 548.417 317.654 c 0
 554.093 340.358 589.493 370.127 627.436 384.102 c 0
 665.378 398.077 691.564 390.993 685.889 368.289 c 0
 662.5 274.733 595.226 208.865 553.734 175.232 c 0
 533.571 158.889 511.095 143.36 487.359 129.656 c 0
 460.11 113.924 431.429 100.763 403.571 91.0059 c 0
 353.196 73.3613 306.4 66.6738 264.273 68.748 c 0
 174.786 73.1523 114.015 115.552 81.3799 172.08 c 0
 46.7197 232.115 46.5 301.233 61.3506 360.633 c 0
 78.9922 431.2 120.803 519.174 221.591 594.383 c 0
 237.988 606.618 255.563 618.176 273.691 628.643 c 0
 370.921 684.777 469.977 703.216 554.73 703.216 c 0
 589.168 703.216 621.375 699.272 651.339 691.822 c 0
 673.979 686.193 687.975 674.479 696.5 659.712 c 0
 718.508 621.591 693.9 580.447 687.866 570.014 c 0
 673.438 545.071 652.977 519.784 628.848 495.179 c 0
 602.735 468.55 558.731 447.984 530.626 449.274 c 0
 502.52 450.564 500.902 473.224 527.016 499.853 c 0
 538.794 511.862 551.976 527.088 561.25 543.792 c 0
374.453 -17.876 m 0
 387.613 -17.876 400.442 -14.71 401.488 -14.1064 c 0
 404.765 -12.2148 411.534 -6.06152 418.122 1.24414 c 0
 475.782 65.1777 516.835 191.325 548.417 317.655 c 0
 554.094 340.358 589.493 370.127 627.436 384.102 c 0
 665.378 398.077 691.564 390.993 685.889 368.289 c 0
 639.428 182.445 592.901 77.1523 526.456 3.47754 c 0
 504.123 -21.2861 474.397 -48.0391 434.407 -71.127 c 0
 404.752 -88.249 350.48 -114.471 284.879 -114.471 c 0
 219.037 -114.471 155.604 -108.25 95.0859 -96.0771 c 0
 70.7803 -91.1885 75.1445 -65.9512 104.827 -39.7432 c 0
 134.511 -13.5342 178.327 3.76758 202.632 -1.12109 c 0
 258.351 -12.3281 315.995 -17.876 374.453 -17.876 c 0
EndSplineSet
Fore
194 -0 m 0
 212 -0 266 -18 374 -18 c 0
 401 -18 405 -13 418 1 c 0
 446 32 470 78 491 132 c 1
 423 92 347 68 276 68 c 0
 134 68 52 165 52 289 c 0
 52 493 266 703 555 703 c 0
 640 703 705 688 705 626 c 0
 705 592 681.97 550.029 629 495 c 0
 603.986 469.014 561 449 533 449 c 0
 522 449 508 453 508 466 c 0
 508 494 567 527 567 564 c 0
 567 598 524 607 465 607 c 0
 325 607 234 553 199 411 c 0
 193 389 191 369 191 350 c 0
 191 247 262 165 368 165 c 0
 476 165 532 251 548 318 c 0
 556 348 619 391 662 391 c 0
 677 391 687 385 687 374 c 0
 687 372 686 370 686 368 c 1
 621 107 549.783 -3.62717 434 -71 c 0
 404.946 -87.9064 350 -114 285 -114 c 0
 219 -114 156 -108 95 -96 c 0
 85 -94 79 -88 79 -80 c 0
 79 -48 150 -0 194 -0 c 0
EndSplineSet
EndChar
StartChar: H
Encoding: 72 72 9
Width: 1056
Flags: HMW
Back
333.646 360.114 m 0
 348.821 420.814 358.014 481.522 361.044 541.259 c 0
 361.537 550.966 359.361 560.149 355.003 567.699 c 0
 345.88 583.501 329.878 589.27 318.594 589.265 c 0
 311.515 589.262 274.672 589.482 240.832 580.333 c 0
 230.214 577.462 219.901 573.852 209.915 568.087 c 0
 204.271 564.827 197.74 560.138 191.292 554.486 c 0
 181.362 545.784 167.2 531.009 151.85 508.819 c 0
 133.816 482.75 91.6982 457.062 57.8369 451.481 c 0
 23.9756 445.901 11.1299 462.529 29.1641 488.6 c 0
 57.3184 529.299 85.6182 556.769 104.029 572.903 c 0
 128.896 594.697 153.771 611.698 176.996 625.107 c 0
 217.15 648.29 255.097 662.062 284.859 670.11 c 0
 298.021 673.668 342.897 685.832 408.121 685.859 c 0
 419.729 685.864 467.319 685.04 490.05 645.669 c 0
 497.19 633.299 500.859 618.533 499.992 601.446 c 0
 496.817 538.847 487.183 475.009 471.118 410.749 c 0
 439.004 282.294 395.387 153.925 340.666 27.0723 c 0
 330.182 2.7666 291.721 -25.8506 254.817 -36.8047 c 0
 217.913 -47.7598 196.472 -36.9238 206.956 -12.6182 c 0
 259.903 110.122 302.344 234.905 333.646 360.114 c 0
818.22 278.541 m 0
 802.703 216.476 793.242 154.406 790.017 93.3115 c 0
 789.496 83.4521 791.693 74.082 796.082 66.4785 c 0
 805.271 50.5635 820.503 47.376 820.908 47.2695 c 0
 822.292 46.9082 820.623 47.1201 824.519 46.5176 c 0
 828.414 45.916 823.046 46.4395 827.643 46.1875 c 0
 827.674 46.1855 808.734 45.3125 830.024 46.1641 c 0
 855.518 47.1826 884.04 49.7676 898.972 54.6553 c 0
 900.75 55.2373 895.968 53.3828 892.021 51.1045 c 1
 892.033 51.1113 871.191 28.7568 874.074 40.2871 c 0
 879.75 62.9912 915.15 92.7598 953.093 106.734 c 0
 991.034 120.709 1017.22 113.625 1011.54 90.9209 c 0
 1004.36 62.1973 978.49 25 924.94 -5.91602 c 0
 908.939 -15.1543 889.836 -24.0732 868.236 -31.1436 c 0
 815.686 -48.3457 756.678 -49.8799 745.391 -50.3311 c 0
 740.068 -50.543 734.656 -50.3877 732.124 -50.249 c 0
 727.527 -49.9971 722.533 -49.374 720.277 -49.0254 c 0
 716.381 -48.4229 711.678 -47.3613 709.66 -46.834 c 0
 686.236 -40.707 670.664 -28.168 661.035 -11.4902 c 0
 653.819 1.00879 650.162 15.958 651.073 33.2119 c 0
 654.449 97.1475 664.351 162.318 680.748 227.907 c 0
 713.363 358.368 757.478 488.743 812.691 617.619 c 0
 823.094 641.899 861.506 670.541 898.434 681.55 c 0
 935.36 692.559 956.888 681.786 946.484 657.505 c 0
 892.997 532.659 850.037 405.81 818.22 278.541 c 0
199.634 260.675 m 2
 170.478 260.675 166.757 282.179 191.327 308.674 c 0
 215.898 335.17 259.502 356.674 288.658 356.674 c 2
 738.938 356.672 l 2
 768.094 356.672 771.815 335.168 747.244 308.672 c 0
 722.674 282.177 679.069 260.673 649.914 260.673 c 2
 199.634 260.675 l 2
EndSplineSet
Fore
204 -24 m 0
 204 -9 253 79 307 261 c 1
 200 261 l 2
 183 261 175 267 175 278 c 0
 175 309 245 357 289 357 c 2
 332 357 l 1
 350 430 361 507 361 544 c 0
 361 571 341 589 319 589 c 0
 223 589 189 563 152 509 c 0
 130 478 78 450 46 450 c 0
 30 450 21 457 21 468 c 0
 21 473 24 481 29 489 c 0
 63 537 181 686 408 686 c 0
 476 686 500 643 500 606 c 0
 500 556 483 454 457 357 c 1
 716 357 l 1
 756 486 802.125 591.948 813 618 c 0
 827.163 651.932 889 686 924 686 c 0
 940 686 949 680 949 669 c 0
 949 665 948 662 946 658 c 0
 814 349 790 145 790 90 c 0
 790 61 812 47 828 46 c 2
 828 46 809 45 830 46 c 0
 846 47 864 48 878 50 c 1
 894 79 949 114 988 114 c 0
 1003 114 1012 108 1012 97 c 0
 1012 71 970 2 868 -31 c 0
 837 -41 784 -50 744 -50 c 0
 664 -50 651 1 651 28 c 0
 651 77 667 176 692 271 c 1
 677 264 662 261 650 261 c 2
 429 261 l 1
 391 144 351 51 341 27 c 0
 326 -7 265 -41 229 -41 c 0
 214 -41 204 -35 204 -24 c 0
EndSplineSet
EndChar
StartChar: I
Encoding: 73 73 10
Width: 690
Flags: HMW
Back
378.543 589.562 m 2
 356.711 589.562 205.062 591.395 161.298 572.044 c 0
 161.254 572.024 163.813 573.385 163.746 573.346 c 1
 171.046 577.56 175.229 581.418 175.849 582.534 c 1
 174.844 580.725 173.588 577.735 172.634 573.918 c 0
 166.992 551.354 131.81 521.77 94.1006 507.881 c 0
 56.3926 493.992 30.3662 501.032 36.0068 523.597 c 0
 38.6553 534.189 42.3613 542.961 47.2627 551.787 c 0
 69.6221 592.052 111.69 618.849 131.029 630.015 c 0
 140.376 635.41 150.091 640.501 162.77 646.106 c 0
 245.841 682.836 338.608 685.562 467.567 685.562 c 2
 760.487 685.562 l 2
 789.643 685.562 793.364 664.058 768.794 637.562 c 0
 744.223 611.066 700.619 589.562 671.463 589.562 c 2
 378.543 589.562 l 2
532.053 594.773 m 1
 532.046 594.77 542.059 602.457 538.795 599.109 c 0
 494.97 554.156 459.679 398.357 452.162 368.289 c 0
 412.065 207.899 360.975 121.545 290.404 65.6367 c 0
 278.548 56.2432 264.846 46.7363 249.835 38.0693 c 0
 213.172 16.9014 184.763 9.31348 170.688 6.0127 c 0
 152.38 1.71777 136.172 0.0839844 121.124 0.0839844 c 0
 91.7881 0.0839844 88.0439 21.7217 112.767 48.3818 c 0
 137.489 75.042 181.362 96.6787 210.699 96.6787 c 0
 215.681 96.6787 219.884 97.1416 222.454 97.7441 c 0
 224.299 98.1768 218.649 96.0908 216.915 95.0898 c 1
 216.925 95.0957 214.342 93.3994 214.802 93.7637 c 0
 257.283 127.419 296.123 243.384 314.69 317.654 c 0
 352.608 469.325 379.136 544.47 436.473 603.282 c 0
 451.382 618.575 472.089 636.18 499.134 651.794 c 0
 536.938 673.62 567.739 680.485 581.725 682.949 c 0
 592.151 684.786 602.351 685.859 614.302 685.859 c 0
 643.638 685.859 647.383 664.222 622.66 637.562 c 0
 597.938 610.901 554.063 589.265 524.728 589.265 c 0
 520.688 589.265 518.822 588.912 518.455 588.848 c 0
 518.433 588.844 524.734 590.548 532.053 594.773 c 1
539.968 96.3818 m 2
 558.131 96.3818 578.389 97.6104 589.286 100.6 c 0
 589.363 100.621 584.48 98.9482 577.473 94.9023 c 1
 577.479 94.9072 552.574 71.1289 554.224 77.7256 c 0
 559.863 100.289 595.046 129.874 632.755 143.764 c 0
 670.464 157.652 696.49 150.612 690.85 128.049 c 0
 682.434 94.3818 649.944 61.1855 610.189 38.2334 c 0
 586.445 24.5254 564.088 16.4658 546.411 11.6162 c 0
 506.629 0.703125 469.882 0.382812 450.944 0.382812 c 2
 11.5527 0.382812 l 2
 -17.6035 0.382812 -21.3252 21.8867 3.24609 48.3818 c 0
 27.8164 74.8779 71.4199 96.3818 100.576 96.3818 c 2
 539.968 96.3818 l 2
EndSplineSet
Fore
-13 17 m 0
 -13 49 57 96 101 96 c 2
 205 96 l 1
 207 97 209 97 211 97 c 2
 219 97 l 1
 260 135 297 246 315 318 c 0
 344 434 368 524 424 590 c 1
 359 590 l 2
 316 590 219 589 174 576 c 1
 156 529 92 501 60 501 c 0
 45 501 35 507 35 518 c 0
 35 542 69.1665 604.622 163 646 c 0
 246.148 682.665 339 686 468 686 c 2
 760 686 l 2
 777 686 785 679 785 668 c 0
 785 637 715 590 671 590 c 2
 531 590 l 1
 452 483 461 240 324 96 c 1
 540 96 l 2
 548 96 557 97 565 97 c 1
 580 116 626 151 667 151 c 0
 682 151 692 145 692 134 c 0
 692 108 631 0 451 0 c 2
 12 0 l 2
 -5 0 -13 7 -13 17 c 0
EndSplineSet
EndChar
StartChar: J
Encoding: 74 74 11
Width: 828
Flags: HMW
Back
624.597 589.265 m 2
 570.882 589.265 520.557 576.449 488.015 559.075 c 0
 487.83 558.977 530.829 583.897 483.342 556.48 c 0
 471.78 549.806 459.303 540.309 448.377 527.395 c 0
 436.632 513.514 424.345 492.954 417.829 466.896 c 0
 412.153 444.191 376.753 414.423 338.812 400.448 c 0
 300.869 386.473 274.682 393.558 280.358 416.261 c 0
 289.223 451.72 306.926 486.18 335.778 520.282 c 0
 362.706 552.108 399.883 584.322 450.422 613.502 c 0
 462.294 620.355 462.694 620.383 465.787 622.034 c 0
 554.129 669.2 643.597 685.859 714.171 685.859 c 2
 961.962 685.859 l 2
 991.298 685.859 995.042 664.222 970.319 637.562 c 0
 945.597 610.901 901.724 589.265 872.387 589.265 c 2
 624.597 589.265 l 2
836.135 583.397 m 0
 827.995 578.697 821.921 571.329 819.67 568.939 c 0
 743.638 488.178 697.491 302.751 662.43 162.504 c 0
 652.394 122.36 626.2 63.9316 561.199 5.44531 c 0
 534.05 -18.9834 505.878 -38.2891 479.95 -53.2588 c 0
 455.897 -67.1455 427.961 -80.7529 395.492 -92.001 c 0
 350.627 -107.543 308.558 -114.471 270.11 -114.471 c 0
 178.463 -114.471 101.551 -82.7363 69.9766 -28.0459 c 0
 54.4824 -1.20898 49.0732 31.9844 59.0479 71.8818 c 0
 64.7236 94.585 100.123 124.354 138.065 138.328 c 0
 176.008 152.304 202.195 145.22 196.52 122.516 c 0
 189.688 95.1865 193.103 70.5723 205.023 49.9238 c 0
 230.939 5.03223 294.454 -17.876 359.685 -17.876 c 0
 384.026 -17.876 405.572 -13.3125 421.547 -7.77832 c 0
 431.632 -4.28516 439.659 -0.494141 447.03 3.76172 c 0
 459.624 11.0322 467.949 18.5078 471.143 21.3818 c 0
 508.296 54.8115 521.066 96.3027 524.958 111.869 c 0
 585.846 355.416 628.774 479.082 714.539 570.18 c 0
 736.731 593.753 765.91 618.88 803.216 640.418 c 0
 838.37 660.715 894.728 685.859 961.962 685.859 c 0
 991.298 685.859 995.042 664.222 970.319 637.562 c 0
 945.597 610.901 901.724 589.265 872.387 589.265 c 0
 857.688 589.265 842.081 586.83 836.135 583.397 c 0
EndSplineSet
Fore
197 128 m 0
 197 122 193 115 193 95 c 0
 193 25 267 -18 360 -18 c 0
 467 -18 512 60 525 112 c 0
 570 292 613 476 734 589 c 1
 625 589 l 2
 597 589 532 584 483 556 c 0
 448 536 427.312 501.918 418 467 c 0
 410 437 347 393 304 393 c 0
 289 393 280 399 280 410 c 0
 280 416 l 1
 303 507 380 573 450 614 c 2
 466 622 l 2
 554 669 644 686 714 686 c 2
 962 686 l 2
 978 686 987 679 987 669 c 0
 987 637 916 589 872 589 c 0
 835 589 829 579 820 569 c 0
 744 488 697 303 662 163 c 0
 622.765 6.05865 426 -114 270 -114 c 0
 172 -114 54 -73 54 32 c 0
 54 44 56 58 59 72 c 0
 67 102 130 145 173 145 c 0
 188 145 197 139 197 128 c 0
EndSplineSet
EndChar
StartChar: K
Encoding: 75 75 12
Width: 923
Flags: HMW
Back
169.384 380.049 m 0
 186.396 448.095 195.726 516.149 197.126 582.782 c 1
 157.756 562.919 l 2
 119.608 543.673 85.3438 543.024 81.2725 561.473 c 0
 77.2012 579.921 104.857 610.514 143.005 629.76 c 2
 259.113 688.34 l 2
 279.552 698.651 297.188 703.555 312.573 703.202 c 0
 327.96 702.85 335.682 697.365 335.981 686.578 c 0
 338.292 603.473 328.553 517.474 306.855 430.683 c 0
 275.058 303.491 231.751 176.384 177.342 50.8066 c 0
 166.805 26.4854 128.313 -2.11523 91.4248 -13.0352 c 0
 54.5361 -23.9551 33.1494 -13.0791 43.6875 11.2422 c 0
 96.292 132.655 138.405 256.136 169.384 380.049 c 0
751.815 610.381 m 0
 750.327 612.958 748.006 614.337 746.764 615.084 c 0
 738.005 620.351 723.627 621.779 716.56 621.325 c 0
 688.008 619.492 617.023 590.452 540.609 546.335 c 0
 477.274 509.769 436.739 477.715 420.522 458.632 c 0
 415.325 452.516 414.133 449.435 414.047 448.879 c 0
 410.849 428.303 429.571 357.026 489.28 253.607 c 0
 554.066 141.394 621.046 73.876 657.518 65.1934 c 0
 661.281 64.2969 651.032 64.6182 660.959 64.6182 c 0
 702.029 64.6182 733.299 71.4424 750.897 78.4785 c 0
 753.716 79.6055 750.727 78.293 754.843 80.1543 c 0
 759.045 82.0527 750.565 77.8672 758.143 81.7373 c 0
 758.188 81.7598 729.889 65.3301 760.817 83.1865 c 0
 764.519 85.3232 772.979 90.1973 777.303 107.494 c 0
 782.686 129.025 810.621 152.026 839.658 158.836 c 0
 868.695 165.646 887.894 153.697 882.511 132.166 c 0
 877.993 114.097 861.159 65.2441 793.672 26.2812 c 0
 785.939 21.8164 783.972 20.9316 781.516 19.6768 c 0
 773.938 15.8076 771.8 14.9365 769.354 13.8301 c 0
 762 10.5068 759.686 9.65527 757.262 8.68555 c 0
 705.19 -12.1328 649.709 -17.2021 610.641 -17.2031 c 0
 599.05 -17.2031 590.433 -15.293 586.576 -14.375 c 0
 522.953 0.772461 448.833 88.4951 387.449 194.816 c 0
 332.47 290.045 299.447 371.155 308.84 424.207 c 0
 311.874 441.349 324.533 459.073 338.021 474.945 c 0
 378.324 522.371 449.882 569.828 507.755 603.24 c 0
 653.031 687.115 727.015 701.344 766.879 703.146 c 0
 798.398 704.571 819.394 697.052 834.327 688.071 c 0
 842.224 683.323 849.027 677.172 853.646 669.172 c 0
 854.548 667.609 856.783 662.635 857.358 660.897 c 0
 860.931 650.11 861.033 649.514 857.696 629.681 c 0
 854.153 608.621 824.378 585.148 795.341 578.339 c 0
 766.304 571.529 747.22 583.505 752.489 605.01 c 0
 752.652 605.674 753.104 606.991 752.431 609.021 c 0
 752.319 609.359 752.518 609.164 751.815 610.381 c 0
EndSplineSet
Fore
860 645 m 0
 860 604 812 576 780 576 c 0
 763 576 752 585 752 598 c 0
 752 603 753 605 753 607 c 0
 753 617 730 621 719 621 c 0
 658 621 414 484 414 444 c 0
 414 418 434 350 489 254 c 0
 552 146 628 65 661 65 c 0
 709 65 741 73 758 82 c 1
 758 82 730 65 761 83 c 0
 765 85 773 90 777 107 c 0
 784 135 824 161 855 161 c 0
 872 161 883 153 883 139 c 0
 883 104 818 -17 611 -17 c 0
 521 -17 432 118 387 195 c 0
 327 300 307 361 307 402 c 0
 307 437 323 457 338 475 c 0
 406 555 650 703 774 703 c 0
 814 703 860 687 860 645 c 0
311 703 m 0
 337 703 336 694 336 663 c 0
 336 587 326 509 307 431 c 0
 275 303 232 176 177 51 c 0
 163 17 101 -17 66 -17 c 0
 50 -17 41 -11 41 -0 c 0
 41 18 192 323 197 583 c 1
 158 563 l 2
 138 553 120 548 106 548 c 0
 93 548 81 553 81 565 c 0
 81 584 107 612 143 630 c 2
 259 688 l 2
 280 699 298 703 311 703 c 0
EndSplineSet
EndChar
StartChar: L
Encoding: 76 76 13
Width: 834
Flags: HMW
Back
685.297 27.9092 m 0
 666.331 16.96 643.397 6.04395 618.283 -2.24023 c 0
 590.205 -11.501 560.18 -17.1318 531.512 -17.1318 c 0
 401.407 -17.1318 288.778 19.8359 168.683 19.8359 c 0
 161.889 19.8359 156.037 18.9678 152.438 17.7979 c 0
 151.806 17.5928 154.366 18.7207 155.237 19.2236 c 1
 155.232 19.2207 156.929 20.2939 156.927 20.293 c 0
 121.396 -6.84375 75.1855 -22.7852 53.7803 -15.291 c 0
 32.375 -7.79688 43.8389 20.3086 79.3701 47.4443 c 0
 95.0684 59.4346 108.996 68.3525 122.403 76.0928 c 0
 142.723 87.8242 167.392 99.6768 194.147 108.369 c 0
 219.393 116.572 246.399 121.836 272.129 121.836 c 0
 402.232 121.836 514.861 84.8682 634.958 84.8682 c 0
 648.928 84.8682 657.108 87.3828 658.651 87.8916 c 0
 658.667 87.8975 656.288 86.9873 652.463 84.7783 c 1
 652.466 84.7803 640.02 75.3438 640.81 76.5039 c 0
 642.157 78.4844 644.868 83.375 646.566 90.1689 c 0
 652.292 113.07 690.281 144.945 731.365 161.317 c 0
 772.449 177.69 801.146 172.392 795.421 149.49 c 0
 791.562 134.056 784.919 120.431 775.702 106.889 c 0
 756.854 79.1973 726.098 51.4658 685.297 27.9092 c 0
105.087 64.1201 m 0
 105.122 64.1406 102.226 62.2979 101.884 62.0166 c 1
 136.79 90.6982 161.042 189.043 170.635 227.414 c 0
 223.578 439.187 307.8 536.242 342.939 572.647 c 0
 368.551 599.181 401.676 627.491 444.808 652.394 c 0
 507.211 688.422 565.797 702.977 615 702.977 c 0
 672.856 702.977 700.035 674.445 711.16 655.176 c 0
 723.024 634.626 727.061 608.879 719.431 578.36 c 0
 713.717 555.504 675.801 523.691 634.797 507.351 c 0
 593.793 491.01 565.151 496.298 570.866 519.154 c 0
 575.449 537.488 573.148 556.176 564.783 570.665 c 0
 551.667 593.383 528.55 601.176 511.756 601.176 c 0
 499.213 601.175 483.781 599.217 477.576 595.635 c 0
 476.647 595.099 468.759 590.146 456.361 577.302 c 0
 399.062 517.939 349.19 406.581 319.199 286.619 c 0
 294.737 188.771 270.822 109.825 189.544 43.0391 c 0
 171.487 28.2012 153.572 16.4355 137.856 7.36133 c 0
 136.406 6.52441 132.028 4.05762 130.563 3.25195 c 0
 89.7344 -19.1943 51.0352 -23.6953 44.1826 -6.7959 c 0
 37.3291 10.1045 64.9033 42.0371 105.732 64.4844 c 0
 105.956 64.6064 81.959 50.7676 105.087 64.1201 c 0
EndSplineSet
Fore
570 514 m 0
 570 518 573 526 573 538 c 0
 573 574 546 601 512 601 c 0
 483 601 476 597 456 577 c 0
 399 518 349 407 319 287 c 0
 304 227 289 171 258 121 c 1
 263 122 267 122 272 122 c 0
 402 122 515 85 635 85 c 0
 644 85 l 1
 667 144 745 171 773 171 c 0
 787 171 796 165 796 155 c 0
 796 153 796 151 795 149 c 1
 774 63 638 -17 532 -17 c 0
 401 -17 289 20 169 20 c 0
 164 20 160 19 157 19 c 1
 148 13 103 -17 66 -17 c 0
 52 -17 43 -12 43 -1 c 0
 43 12 55 33 105 65 c 1
 185 155 168.182 491.686 445 652 c 0
 507.041 687.93 566 703 615 703 c 0
 678 703 723 666 723 608 c 0
 723 599 722 589 719 578 c 0
 711 546 638 498 594 498 c 0
 579 498 570 503 570 514 c 0
EndSplineSet
EndChar
StartChar: M
Encoding: 77 77 14
Width: 1464
Flags: HMW
Back
669.881 288.489 m 0
 679.283 267.568 689.667 247.268 701.001 227.636 c 0
 716.854 200.178 734.566 174.028 754.044 149.321 c 1
 700.205 108.557 l 1
 678.56 34.4766 l 1
 669.005 34.4834 661.356 36.8506 656.947 41.8008 c 0
 625.945 76.6074 598.632 114.467 575.221 155.017 c 0
 563.381 175.524 552.54 196.72 542.726 218.559 c 0
 504.248 304.178 469.69 392.067 439.126 482.027 c 1
 425.818 427.1 408.553 368.874 386.34 307.847 c 0
 377.395 283.271 367.842 258.793 357.707 234.471 c 0
 318.81 141.118 277.497 44.7568 222.235 -11.6943 c 0
 217.711 -16.3164 209.246 -24.5068 199.533 -31.6152 c 0
 180.323 -45.6748 161.098 -52.3047 143.051 -51.083 c 0
 126.468 -49.9609 110.663 -46.6904 95.9199 -41.3242 c 0
 88.9336 -38.7812 82.1865 -35.7666 75.709 -32.2783 c 0
 61.0781 -24.3965 53.1523 -17.2334 48.2324 -11.9453 c 0
 34.6689 2.63574 38.2373 45.4375 56.1973 83.5947 c 0
 74.1582 121.752 99.7422 140.887 113.307 126.306 c 0
 116.749 122.605 122.411 117.862 132.653 112.345 c 0
 137.89 109.524 143.407 107.055 149.164 104.959 c 0
 161.314 100.536 174.534 97.7861 188.418 96.8467 c 0
 199.621 96.0879 206.792 100.574 211.617 104.105 c 0
 219.615 109.959 217.082 108.609 219.108 110.68 c 0
 239.249 131.255 260.096 171.918 302.037 272.577 c 0
 310.062 291.837 317.569 311.083 324.574 330.328 c 0
 365.893 443.844 385.256 545.135 393.439 629.092 c 1
 393.753 628.945 l 1
 393.996 628.945 l 1
 393.871 646.899 417.271 672.741 449.731 689.337 c 0
 485.244 707.493 518.221 707.739 523.338 689.887 c 0
 563.05 551.356 611.983 417.322 669.881 288.489 c 0
1276.99 219.521 m 0
 1275.5 175.611 1279.06 132.809 1287.59 91.9434 c 0
 1288.28 88.6182 1289.44 85.624 1290.95 83.0117 c 0
 1295.34 75.3994 1301.66 71.7529 1307.25 70.5967 c 1
 1343.73 89.0059 l 2
 1381.88 108.252 1416.14 108.9 1420.21 90.4521 c 0
 1424.29 72.0039 1396.63 41.4111 1358.48 22.1641 c 2
 1309.8 -2.39648 l 2
 1271.43 -21.7578 1239.62 -26.9209 1218.35 -26.3789 c 0
 1191.43 -25.6934 1167.59 -15.2021 1155.9 5.04199 c 0
 1152.88 10.2783 1150.64 16.1172 1149.3 22.5576 c 0
 1140.22 66.0137 1136.41 111.605 1138.01 158.637 c 0
 1142.11 279.43 1153.82 401.688 1173.07 524.777 c 1
 1285.44 629.043 l 1
 1326.24 668.311 l 1
 1326.23 667.032 1326.1 665.687 1325.84 664.274 c 0
 1298.3 514.778 1281.96 366.112 1276.99 219.521 c 0
894.721 329.234 m 0
 1027.52 447.344 1157.76 568.193 1285.29 691.64 c 0
 1307.8 713.426 1326.13 703.064 1326.21 668.512 c 0
 1326.29 633.958 1308.09 588.233 1285.58 566.447 c 0
 1156.61 441.602 1024.99 319.469 890.852 200.175 c 0
 827.572 143.896 761.959 90.708 694.312 40.8057 c 0
 672.041 24.377 656.606 41.3955 659.86 78.7949 c 0
 663.113 116.193 683.828 159.88 706.099 176.309 c 0
 771.323 224.424 834.317 275.513 894.721 329.234 c 0
EndSplineSet
Fore
895 329 m 2
 1285 692 l 2
 1293 699 1301 703 1307 703 c 0
 1318 703 1326 691 1326 669 c 0
 1326 661 1277 405 1277 203 c 0
 1277 149 1285 94 1291 83 c 0
 1295 75 1302 72 1307 71 c 1
 1344 89 l 2
 1363 99 1382 104 1396 104 c 0
 1409 104 1421 99 1421 87 c 0
 1421 68 1394 40 1358 22 c 2
 1310 -2 l 2
 1279 -18 1248 -26 1221 -26 c 0
 1185 -26 1156 -10 1149 23 c 0
 1142 60 1138 98 1138 138 c 0
 1138 201 1146 327 1163 452 c 1
 891 200 l 2
 836 151 701 39 679 34 c 1
 669 34 661 37 657 42 c 0
 595 111 534 202 439 482 c 1
 420 404 394 322 358 234 c 0
 305 109 234 -51 148 -51 c 0
 123 -51 75 -40 48 -12 c 0
 42 -5 39 5 39 18 c 0
 39 63 76 131 102 131 c 0
 106 131 110 130 113 126 c 1
 120 119 154 97 185 97 c 0
 197 97 209 101 219 111 c 0
 254 147 310 289 325 330 c 0
 366 444 386 545 394 629 c 0
 394 663 462 703 500 703 c 0
 512 703 521 699 523 690 c 0
 569 532 652 298 724 190 c 1
 783 234 840 281 895 329 c 2
EndSplineSet
EndChar
StartChar: N
Encoding: 78 78 15
Width: 993
Flags: HMW
Back
949.793 630.132 m 1
 946.638 623.854 941.26 611.158 934.305 592.049 c 0
 921.815 557.734 907.796 512.141 896.419 474.793 c 0
 850.653 324.553 809.777 174.087 773.84 23.5586 c 1
 771.683 28.0488 l 1
 705.357 28.0488 l 1
 741.675 178.298 782.732 328.62 828.457 478.728 c 0
 839.976 516.542 855.108 566.641 872.539 614.53 c 0
 879.506 633.67 894.938 675.116 913.619 707.954 c 0
 923.078 724.582 931.607 736.216 939.541 744.941 c 0
 1006.43 818.515 1090.85 834.201 1145.72 834.201 c 0
 1164.8 834.201 1170.6 801.05 1158.67 760.201 c 0
 1146.73 719.354 1121.56 686.201 1102.48 686.201 c 0
 1034.45 686.201 980.273 661.467 949.793 630.132 c 1
261.064 187.242 m 0
 260.08 184.47 255.171 170.604 251.146 159.546 c 0
 247.285 148.937 241.379 132.921 234.277 115.545 c 0
 185.825 -3.00684 137.439 -40.3896 101.355 -49.04 c 0
 97.7627 -49.9014 89.0195 -51.8809 77.1289 -51.085 c 0
 60.1885 -49.9502 44.042 -46.6152 28.9824 -41.1338 c 0
 22.3525 -38.7207 15.9336 -35.8906 9.75195 -32.6406 c 0
 -5.35938 -24.6963 -13.5576 -17.4414 -18.6494 -12.0703 c 0
 -32.2998 2.32812 -28.8525 45.0381 -10.958 83.2637 c 0
 6.9375 121.49 32.5371 140.828 46.1885 126.431 c 0
 49.7979 122.624 55.7256 117.75 66.4434 112.116 c 0
 71.4697 109.474 76.7422 107.146 82.2266 105.149 c 0
 94.6865 100.614 108.24 97.7998 122.474 96.8467 c 0
 133.069 96.1367 133.204 97.2227 136.024 97.8994 c 0
 152.766 101.914 162.112 113.316 177.661 151.36 c 0
 181.362 160.417 185.294 170.795 189.382 182.026 c 0
 193.005 191.98 197.42 204.463 198.306 206.959 c 0
 255.596 368.378 279.837 512.428 287.924 629.144 c 1
 288.008 628.945 l 1
 363.299 628.945 l 1
 349.693 501.88 319.583 352.093 261.064 187.242 c 0
629.569 233.017 m 0
 634.234 224.337 639.023 215.743 643.935 207.236 c 0
 679.003 146.495 720.305 90.1953 767.354 38.9824 c 0
 779.861 25.3701 762.718 -3.14258 729.089 -24.6611 c 0
 695.459 -46.1797 658.015 -52.5957 645.509 -38.9824 c 0
 596.892 13.9355 554.299 72.0127 518.155 134.617 c 0
 513.093 143.385 508.157 152.241 503.35 161.186 c 0
 423.493 309.739 352.1 463.742 289.406 622.681 c 0
 282.694 639.697 305.852 668.881 341.099 687.822 c 0
 376.345 706.764 410.398 708.326 417.11 691.31 c 0
 479.371 533.468 550.271 380.531 629.569 233.017 c 0
EndSplineSet
Fore
288 629 m 0
 288 658 349 703 393 703 c 0
 405 703 414 699 417 691 c 0
 479 533 550.238 381.129 630 233 c 2
 644 207 l 2
 667 167 693 129 721 93 c 1
 762 252 856.175 605.901 914 708 c 0
 958.133 785.924 1047 834 1146 834 c 0
 1158 834 1165 820 1165 799 c 0
 1165 748 1128 686 1102 686 c 0
 1034 686 980 661 950 630 c 1
 922 576 832 269 774 24 c 1
 772 28 l 1
 773 -1 711 -46 667 -46 c 0
 658 -46 650 -44 646 -39 c 0
 597 14 554.26 72.1493 518 135 c 2
 503 161 l 2
 446 269 392 379 343 492 c 1
 326 399 300 296 261 187 c 2
 251 160 l 2
 233 108 175 -51 83 -51 c 0
 57 -51 8 -41 -19 -12 c 0
 -25 -5 -28 5 -28 17 c 0
 -28 62 9 132 35 132 c 0
 39 132 43 130 46 126 c 0
 65 106 105 97 127 97 c 0
 152 97 162.752 109.089 189 182 c 2
 198 207 l 2
 255.965 368.013 280 512 288 629 c 0
EndSplineSet
EndChar
StartChar: O
Encoding: 79 79 16
Width: 957
Flags: HMW
Back
356.508 597.213 m 0
 306.531 568.359 239.372 501.575 214.626 402.588 c 0
 197.182 332.812 202.478 260.834 237.501 200.17 c 0
 282.204 122.738 366.854 79.3223 461.884 79.3223 c 0
 532.448 79.3223 593.274 99.6787 637.594 125.266 c 0
 714.872 169.883 765.559 243.432 784.114 317.654 c 0
 799.271 378.278 801.254 455.797 764.233 519.922 c 0
 730.875 577.701 675.542 606.621 613.766 606.621 c 0
 589.912 606.621 575.94 600.906 566.979 595.732 c 0
 556.962 589.949 552.456 585.656 549.325 583.007 c 0
 527.295 564.366 497.624 529.749 473.179 479.083 c 0
 461.254 454.366 421.981 426.197 385.518 416.205 c 0
 349.054 406.213 329.139 418.163 341.063 442.88 c 0
 358.673 479.377 395.688 545.321 465.956 604.776 c 0
 485.86 621.617 508.752 638.142 534.06 652.753 c 0
 592.413 686.443 651.687 703.216 703.34 703.216 c 0
 820.784 703.217 875.815 638.534 899.28 597.891 c 0
 941.277 525.146 938.782 437.074 921.586 368.289 c 0
 891.836 249.29 797.803 141.736 670.513 68.2451 c 0
 570.321 10.3994 464.448 -17.2725 372.309 -17.2725 c 0
 242.587 -17.2725 149.486 40.7334 102.454 122.2 c 0
 62.7656 190.946 57.3779 272.851 77.1543 351.954 c 0
 106.46 469.178 197.303 581.322 323.588 654.233 c 0
 352.19 670.747 382.375 684.966 412.294 696.01 c 0
 450.244 710.02 476.485 702.98 470.867 680.299 c 0
 465.249 657.616 429.889 627.837 391.938 613.827 c 0
 378.151 608.737 366.646 603.066 356.508 597.213 c 0
EndSplineSet
Fore
66 265 m 0
 66 541 379 703 447 703 c 0
 462 703 472 697 472 686 c 0
 472 665 435.871 630.352 392 614 c 0
 282 573 205 448 205 326 c 0
 205 178 318 79 462 79 c 0
 646 79 794 215 794 398 c 0
 794 515 726 607 614 607 c 0
 579 607 563 594 549 583 c 0
 527 564 498 530 473 479 c 0
 457 445 398 413 362 413 c 0
 347 413 338 419 338 430 c 0
 338 434 339 438 341 443 c 0
 417 601 573 703 703 703 c 0
 847 703 933 599 933 460 c 0
 933 189 624 -17 372 -17 c 0
 179 -17 66 108 66 265 c 0
EndSplineSet
EndChar
StartChar: P
Encoding: 80 80 17
Width: 864
Flags: HMW
Back
280.797 284.785 m 0
 307.838 392.948 323.65 501.052 327.895 607.244 c 0
 328.724 627.997 360.525 658.423 398.881 675.158 c 0
 437.236 691.894 467.692 688.633 466.863 667.88 c 0
 462.5 558.701 446.245 447.327 418.269 335.42 c 0
 390.292 223.512 350.747 111.674 300.072 1.52148 c 0
 288.783 -23.0186 249.863 -51.3916 213.197 -61.8115 c 0
 176.531 -72.2324 155.936 -60.7744 167.226 -36.2344 c 0
 215.63 68.9824 253.757 176.623 280.797 284.785 c 0
180.927 562.904 m 0
 173.622 558.687 166.768 545.259 164.141 538.947 c 0
 162.86 535.872 160.971 530.928 159.245 524.025 c 0
 153.568 501.322 118.169 471.554 80.2266 457.578 c 0
 42.2842 443.604 16.0977 450.688 21.7734 473.392 c 0
 23.2588 479.334 25.7451 488.016 30.0068 498.255 c 0
 48.6172 542.972 88.9971 585.854 148.008 619.925 c 0
 169.511 632.34 194.513 644.135 223.605 654.173 c 0
 270.386 670.313 337.769 685.859 442.166 685.859 c 0
 471.502 685.859 475.247 664.223 450.524 637.562 c 0
 425.802 610.902 381.928 589.265 352.592 589.265 c 0
 284.61 589.265 230.684 581.382 197.209 569.832 c 0
 188.059 566.675 182.815 563.994 180.927 562.904 c 0
687.516 345.898 m 0
 699.441 352.783 709.936 360.542 720.352 371.812 c 0
 733.56 386.102 748.422 408.98 756.106 439.719 c 0
 763.287 468.438 760.209 491.785 749.003 511.196 c 0
 715.856 568.609 610.131 589.265 493.771 589.265 c 2
 352.592 589.265 l 2
 323.255 589.265 319.511 610.902 344.233 637.562 c 0
 368.956 664.223 412.83 685.859 442.166 685.859 c 2
 583.346 685.859 l 2
 703.679 685.859 839.498 666.334 884.05 589.165 c 0
 899.026 563.224 903.614 530.499 893.578 490.353 c 0
 883.392 449.606 862.437 410.538 826.89 372.078 c 0
 788.45 330.49 743.608 302.258 720.436 288.878 c 0
 609.304 224.716 487.938 205.87 397.923 205.87 c 0
 368.586 205.87 364.842 227.507 389.564 254.167 c 0
 414.287 280.827 458.16 302.465 487.497 302.465 c 0
 582.056 302.465 652.655 325.772 687.516 345.898 c 0
EndSplineSet
Fore
760 468 m 0
 760 577 585 589 494 589 c 2
 462 589 l 1
 452 486 432 376 399 263 c 1
 424 285 461 302 487 302 c 0
 529 302 664 310 720 372 c 0
 742 395 760 433 760 468 c 0
164 -48 m 0
 164 -29 308 226 327 589 c 1
 240 586 193.031 569.946 181 563 c 0
 174.018 558.969 164 544 159 524 c 0
 152 494 89 450 46 450 c 0
 30 450 21 456 21 468 c 0
 21 469 21 471 22 473 c 1
 37 533 126 686 442 686 c 2
 583 686 l 2
 700 686 899 667 899 531 c 0
 899 483 871.862 376.24 720 289 c 0
 608.899 225.176 488 206 398 206 c 0
 391 206 386 207 382 209 c 1
 359 141 331.839 72.073 300 2 c 0
 285.929 -28.9678 228 -66 189 -66 c 0
 173 -66 164 -59 164 -48 c 0
EndSplineSet
EndChar
StartChar: Q
Encoding: 81 81 18
Width: 998
Flags: HMW
Back
534.916 90.3623 m 0
 565.872 101.179 594.779 114.428 620.66 129.37 c 0
 739.016 197.702 766.977 285.695 774.967 317.655 c 0
 790.417 379.455 785.57 443.129 754.548 496.864 c 0
 713.876 567.313 635.863 606.622 549.753 606.622 c 0
 484.465 606.622 428.387 587.737 389.914 565.525 c 0
 324.892 527.984 282.852 467.142 266.873 403.228 c 0
 252.758 346.768 266.998 304.909 281.18 280.346 c 0
 312.171 226.663 371.415 199.566 434.055 199.566 c 0
 482.674 199.566 531.305 205.774 578.015 217.135 c 0
 613.816 225.842 631.685 212.457 617.898 187.259 c 0
 604.112 162.061 563.867 134.544 528.065 125.837 c 0
 464.389 110.351 402.957 102.972 344.48 102.972 c 0
 248.228 102.972 179.762 144.125 146.133 202.376 c 0
 122.632 243.082 114.752 293.998 129.401 352.593 c 0
 156.319 460.267 241.96 556.131 356.994 622.546 c 0
 455.667 679.515 556.317 703.217 639.327 703.217 c 0
 759.87 703.217 846.274 649.869 889.595 574.834 c 0
 921.928 518.828 932.416 448.197 912.438 368.289 c 0
 882.979 250.448 782.494 146.778 653.579 72.3496 c 0
 606.334 45.0723 557.376 23.0918 509.612 6.40137 c 0
 387.963 -36.1084 273.039 -48.2969 171.762 -48.2969 c 0
 142.426 -48.2969 138.681 -26.6602 163.403 0 c 0
 188.126 26.6602 232 48.2979 261.336 48.2979 c 0
 302.581 48.2979 418.271 49.6016 534.916 90.3623 c 0
851.83 -99.4092 m 0
 785.933 -137.455 727.228 -142.998 716.931 -144.045 c 0
 705.225 -145.236 695.894 -145.496 688.873 -145.496 c 0
 493.416 -145.495 348.242 -48.2969 171.762 -48.2969 c 0
 142.426 -48.2969 138.681 -26.6602 163.403 0 c 0
 188.126 26.6602 232 48.2979 261.336 48.2979 c 0
 456.793 48.2979 601.967 -48.9004 778.447 -48.9014 c 0
 785.468 -48.9014 790.646 -48.3975 792.791 -48.1797 c 0
 808.937 -46.5371 818.715 -42.502 818.911 -42.3887 c 0
 818.918 -42.3848 815.027 -45.3662 815.666 -44.6758 c 0
 819.25 -40.8008 822.936 -33.0566 824.87 -25.3174 c 0
 830.546 -2.61426 865.946 27.1543 903.889 41.1299 c 0
 941.83 55.1045 968.018 48.0205 962.342 25.3174 c 0
 953.261 -11.0088 928.506 -37.5947 922.167 -44.4482 c 0
 912.01 -55.4326 890.129 -77.2979 851.83 -99.4092 c 0
EndSplineSet
Fore
922 446 m 0
 922 250 733 84 507 6 c 1
 597 -21 683 -49 778 -49 c 0
 792 -49 810 -46 817 -43 c 1
 824 -32 829 14 904 41 c 0
 917 46 929 48 938 48 c 0
 954 48 963 42 963 31 c 0
 963 29 963 27 962 25 c 1
 940 -65 807 -145 689 -145 c 0
 493 -145 348 -48 172 -48 c 0
 155 -48 147 -42 147 -31 c 0
 147 1 218 48 261 48 c 0
 573 48 783 183 783 385 c 0
 783 513 684 607 550 607 c 0
 353 607 261 457 261 357 c 0
 261 262 341 200 434 200 c 0
 522 200 577 220 598 220 c 0
 613 220 623 213 623 203 c 0
 623 173 568 135 528 126 c 0
 464 110 403 103 344 103 c 0
 218 103 122 179 122 295 c 0
 122 493 384 703 639 703 c 0
 806 703 922 600 922 446 c 0
EndSplineSet
EndChar
StartChar: R
Encoding: 82 82 19
Width: 1058
Flags: HMW
Back
286.846 308.977 m 0
 311.851 408.998 325.651 508.974 327.884 606.893 c 0
 328.353 627.488 359.867 657.942 398.229 674.872 c 0
 436.591 691.802 467.344 688.826 466.874 668.231 c 0
 464.57 567.139 450.332 463.673 424.317 359.61 c 0
 398.301 255.548 360.677 151.543 311.89 49.3105 c 0
 300.113 24.6348 260.924 -3.58398 224.411 -13.6777 c 0
 187.898 -23.7705 167.822 -11.9355 179.598 12.7393 c 0
 225.782 109.517 261.84 208.956 286.846 308.977 c 0
180.927 562.904 m 0
 173.622 558.687 166.768 545.259 164.141 538.947 c 0
 162.86 535.872 160.971 530.928 159.245 524.025 c 0
 153.568 501.322 118.169 471.554 80.2266 457.578 c 0
 42.2842 443.604 16.0977 450.688 21.7734 473.392 c 0
 23.2588 479.334 25.7451 488.016 30.0068 498.255 c 0
 48.6172 542.972 88.9971 585.854 148.008 619.925 c 0
 169.511 632.34 194.513 644.135 223.605 654.173 c 0
 270.386 670.313 337.769 685.859 442.166 685.859 c 0
 471.502 685.859 475.247 664.223 450.524 637.562 c 0
 425.802 610.902 381.928 589.265 352.592 589.265 c 0
 284.61 589.265 230.684 581.382 197.209 569.832 c 0
 188.059 566.675 182.815 563.994 180.927 562.904 c 0
706.058 403.879 m 0
 725.513 415.111 733.656 428.76 737.334 434.654 c 0
 743.133 443.948 748.702 456.088 752.326 470.583 c 0
 759.562 499.526 756.574 519.644 747.909 534.652 c 0
 715.125 591.438 583.399 589.265 467.366 589.265 c 2
 352.592 589.265 l 2
 323.255 589.265 319.511 610.902 344.233 637.562 c 0
 368.956 664.223 412.83 685.859 442.166 685.859 c 2
 556.94 685.859 l 2
 678.483 685.859 838.672 689.327 882.956 612.621 c 0
 896.31 589.491 899.277 559.136 889.798 521.217 c 0
 884.646 500.61 876.199 480.505 863.608 460.326 c 0
 825.821 399.766 763.839 361.212 738.978 346.858 c 0
 723.798 338.095 708.456 330.352 693.346 323.584 c 0
 599.023 281.339 509.103 274.458 457.526 274.458 c 0
 428.19 274.458 424.445 296.096 449.168 322.756 c 0
 473.891 349.416 517.765 371.053 547.101 371.053 c 0
 618.991 371.053 669.663 386.841 693.329 397.44 c 0
 698.436 399.728 702.602 401.884 706.058 403.879 c 0
835.113 79.3223 m 0
 864.272 79.3223 886.596 86.7627 892.541 88.8428 c 0
 902.107 92.1895 910.161 95.7412 917.934 100.465 c 0
 927.924 106.536 928.072 106.659 934.075 111.159 c 0
 935.26 112.046 936.987 113.343 939.846 115.668 c 0
 971.45 141.378 1014.75 156.518 1036.5 149.463 c 0
 1058.25 142.408 1050.25 115.817 1018.64 90.1074 c 0
 1015.55 87.5879 1005.98 80.1113 1002.71 77.6611 c 0
 983.468 63.2412 982.914 62.8936 950.853 43.4434 c 0
 923.845 27.0596 894.86 14.5459 867.337 4.91699 c 0
 823.131 -10.5488 782.234 -17.2725 745.539 -17.2725 c 0
 652.717 -17.2725 734.655 -16.79 734.551 -16.7803 c 0
 606.048 -5.02832 552.343 267.869 457.526 274.458 c 0
 430.037 276.368 424.445 296.096 449.168 322.756 c 0
 473.891 349.416 519.795 373.145 547.101 371.053 c 0
 700.668 359.288 738.05 88.1367 833.561 79.4014 c 0
 833.975 79.3633 742.291 79.3223 835.113 79.3223 c 0
EndSplineSet
Fore
895 562 m 0
 895 460 797 359 656 308 c 1
 727 224 767 86 835 79 c 0
 872 79 908 89 940 116 c 0
 966 137 1001 151 1024 151 c 0
 1039 151 1049 145 1049 134 c 0
 1049 122 1038 106 1019 90 c 2
 1003 78 l 2
 897 -1 797 -17 746 -17 c 2
 735 -17 l 1
 458 274 l 1
 441 274 433 281 433 292 c 0
 433 323 503 371 544 371 c 0
 547 371 l 0
 615 371 673 385 706 404 c 0
 740 423 756 465 756 499 c 0
 756 571 684 589 492 589 c 2
 463 589 l 1
 449 422 401.567 238.205 312 49 c 0
 295.922 15.0368 237 -17 201 -17 c 0
 185 -17 176 -11 176 -0 c 0
 176 19 315 256 327 589 c 1
 240 586 193.031 569.946 181 563 c 0
 174.018 558.969 164 544 159 524 c 0
 152 494 89 450 46 450 c 0
 30 450 21 456 21 468 c 0
 21 469 21 471 22 473 c 1
 37 533 126 686 442 686 c 2
 588 686 l 2
 793 686 895 661 895 562 c 0
EndSplineSet
EndChar
StartChar: S
Encoding: 83 83 20
Width: 741
Flags: HMW
Back
620.077 524.005 m 2
 624.269 540.772 622.511 558.713 615.093 571.562 c 0
 612.156 576.647 604.906 587.249 590.362 591.191 c 0
 552.171 601.543 512.041 606.622 471.616 606.622 c 0
 438.986 606.622 413.332 601.642 397.229 597.026 c 0
 392.953 595.802 381.461 592.238 374.679 588.322 c 0
 367.553 584.209 359.138 571.466 354.746 553.898 c 0
 349.108 531.352 352.071 511.269 362.224 493.684 c 0
 374.624 472.204 405.003 441.514 484.833 421.279 c 0
 536.668 408.142 649.628 378.298 689.5 309.234 c 0
 704.621 283.043 710.113 250.676 700.133 210.755 c 0
 697.81 201.462 693.931 188.579 686.11 172.808 c 0
 678.448 157.354 649.575 102.016 562.492 51.7383 c 0
 540.568 39.0811 515.442 27.0039 485.668 16.3057 c 0
 442.539 0.808594 373.018 -17.2725 282.092 -17.2725 c 0
 226.148 -17.2715 139.358 -6.01953 66.3223 51.6885 c 0
 56.4268 59.5078 48.4463 68.7695 42.4453 79.1641 c 0
 28.1172 103.982 18.7676 143.296 49.0312 190.683 c 0
 64.1758 214.396 69.7402 222.037 91.9932 240.409 c 0
 97.5498 244.997 116.887 258.409 123.502 262.229 c 0
 153.485 279.539 184.108 288.382 208.345 288.382 c 0
 237.681 288.382 241.426 266.745 216.703 240.085 c 0
 191.98 213.425 148.106 191.787 118.771 191.787 c 1
 119.071 191.787 135.996 193.416 156.422 205.208 c 1
 152.141 202.736 172.538 216.279 172.538 216.279 c 0
 172.537 216.279 180.981 225.373 176.735 218.702 c 0
 167.606 204.36 164.226 180.114 177.492 157.134 c 0
 181.711 149.827 187.393 143.287 194.054 138.023 c 0
 255.24 89.6777 325.257 79.3232 371.666 79.3232 c 0
 431.307 79.3223 479.362 88.9209 508.505 99.3926 c 0
 518.646 103.036 525.506 106.411 529.572 108.759 c 0
 538.01 113.631 546.809 122.121 554.455 137.544 c 0
 557.593 143.871 560.496 151.458 562.661 160.121 c 0
 569.564 187.731 566.125 211.047 554.453 231.266 c 0
 526.857 279.064 456.623 306.127 374.046 327.058 c 0
 313.479 342.408 254.173 368.953 227.177 415.714 c 0
 213.659 439.127 208.434 467.901 217.274 503.265 c 0
 231.403 559.781 279.806 609.574 341.759 645.343 c 0
 375.257 664.683 407.918 677.278 437.587 685.781 c 0
 464.188 693.405 507.588 703.217 561.19 703.217 c 0
 611.341 703.217 658.431 697.001 702.141 685.153 c 0
 725.903 678.713 740.77 665.762 750.14 649.531 c 0
 761.84 629.264 764.8 603.645 757.541 574.609 c 2
 757.399 574.044 l 2
 751.696 551.33 716.277 521.567 678.339 507.608 c 0
 640.4 493.65 614.239 500.756 619.943 523.47 c 2
 620.077 524.005 l 2
EndSplineSet
Fore
619 518 m 0
 619 523 622 530 622 542 c 0
 622 565 610.99 584.964 590 591 c 0
 551.981 601.934 512 607 472 607 c 0
 433 607 394 599 375 588 c 0
 365 583 352 560 352 533 c 0
 352 488 388 446 485 421 c 0
 554 404 705 365 705 249 c 0
 705 119 533 -17 282 -17 c 0
 150 -17 63 44 42 79 c 0
 33 95 29 112 29 128 c 0
 29 210 134 288 208 288 c 0
 225 288 233 282 233 271 c 0
 233 258 216 230 171 207 c 1
 170 201 169 195 169 189 c 0
 169 172 176.04 152.051 194 138 c 0
 255.135 90.1727 325 79 372 79 c 0
 442 79 503 94 530 109 c 0
 549 120 566 153 566 186 c 0
 566 260 488 298 374 327 c 0
 259.061 356.239 212 412 212 471 c 0
 212 576 363 703 561 703 c 0
 611 703 657.947 696.803 702 685 c 0
 739.955 674.831 761 644 761 605 c 0
 761 595 760 585 757 574 c 0
 750 544 687 500 644 500 c 0
 629 500 619 506 619 518 c 0
EndSplineSet
EndChar
StartChar: T
Encoding: 84 84 21
Width: 693
Flags: HMW
Back
349.279 148.653 m 2
 450.588 553.891 l 2
 456.303 576.748 494.219 608.561 535.223 624.9 c 0
 576.227 641.242 604.867 635.953 599.153 613.097 c 2
 497.844 207.859 l 2
 480.757 139.513 454.613 71.0898 419.593 3.93359 c 0
 406.286 -21.583 363.67 -51.8379 324.466 -63.5996 c 0
 285.263 -75.3613 264.245 -64.1982 277.551 -38.6816 c 0
 309.039 21.7002 333.327 84.8457 349.279 148.653 c 2
928.914 618.92 m 0
 921.843 614.837 889.112 596.472 849.113 589.018 c 0
 831.314 585.7 813.775 583.818 768.677 583.818 c 2
 239.474 583.818 l 2
 230.535 583.818 214.042 581.867 208.09 578.87 c 0
 208.07 578.86 232.72 593.066 208.793 579.253 c 0
 208.786 579.248 210.057 580.016 210.39 580.29 c 1
 210.388 580.288 197.001 569.556 190.205 543.724 c 0
 184.158 520.734 146.011 488.966 105.055 472.812 c 0
 64.0977 456.657 35.7666 462.204 41.8135 485.192 c 0
 50.3037 517.468 71.8652 557.373 122.408 599.004 c 0
 138.301 612.094 156.77 624.895 176.023 636.011 c 0
 182.006 639.465 192.798 645.221 197.02 647.347 c 0
 253.201 675.638 305.074 685.62 342.719 685.619 c 2
 871.921 685.619 l 2
 891.604 685.619 911.836 685.721 923.419 687.879 c 0
 923.563 687.906 912.308 685.01 896.146 675.678 c 1
 896.152 675.682 855.023 637.466 855.511 639.416 c 0
 861.226 662.272 899.142 694.085 940.146 710.426 c 0
 981.149 726.766 1009.79 721.478 1004.08 698.621 c 0
 1000.03 682.429 983.444 650.402 928.914 618.92 c 0
EndSplineSet
Fore
1005 704 m 0
 1005 673 940 606 849 589 c 0
 831 586 814 584 769 584 c 2
 592 584 l 1
 498 208 l 2
 481 140 455 71 420 4 c 0
 403 -27 338 -68 297 -68 c 0
 282 -68 274 -63 274 -52 c 0
 274 -35 316.54 20.115 349 149 c 2
 451 554 l 2
 453 563 460 573 471 584 c 1
 239 584 l 2
 231 584 216 582 209 579 c 0
 206 577 196 565 190 544 c 0
 181 510 109 464 64 464 c 0
 50 464 41 469 41 479 c 0
 41 481 41 483 42 485 c 1
 70 593 226 686 343 686 c 2
 895 686 l 1
 907 694 947 720 981 720 c 0
 996 720 1005 714 1005 704 c 0
EndSplineSet
EndChar
StartChar: U
Encoding: 85 85 22
Width: 758
Flags: HMW
Back
302.007 42.457 m 0
 204.987 -13.5566 142.857 -17.2725 120.895 -17.2725 c 0
 97.4111 -17.2725 45.1211 -13.9434 14.5449 39.0186 c 0
 -14.2461 88.8877 -8.47656 153.392 2.79102 198.461 c 0
 36.4834 333.233 160.736 542.549 136.265 584.938 c 0
 135.249 586.695 133.083 589.265 130.185 589.265 c 0
 120.237 589.265 113.286 588.322 108.722 587.604 c 0
 102.303 586.595 86.7012 583.833 71.2822 574.932 c 0
 71.2295 574.9 71.1172 574.836 71.0645 574.805 c 0
 33.8037 553.265 -3.85156 548.531 -12.9873 564.24 c 0
 -22.123 579.948 0.702148 610.18 37.9629 631.721 c 0
 38.0156 631.751 38.2197 631.869 38.2725 631.899 c 0
 88.1191 660.679 135.318 675.971 175.404 682.275 c 0
 190.97 684.723 205.731 685.859 219.76 685.859 c 0
 247.633 685.859 263.771 675.969 271.312 662.906 c 0
 309.406 596.921 176.521 394.135 140.262 249.095 c 0
 127.192 196.817 131.71 147.96 149.592 116.987 c 0
 165.671 89.1367 189.397 79.3223 210.469 79.3223 c 0
 224.534 79.3223 241.346 83.4609 269.087 99.4775 c 0
 414.726 183.562 636.562 456.046 675.612 612.245 c 0
 681.288 634.949 716.688 664.717 754.63 678.692 c 0
 792.572 692.667 818.76 685.583 813.083 662.879 c 0
 768.286 483.688 520.923 168.849 302.007 42.457 c 0
666.967 214.491 m 0
 656.781 173.75 651.261 132.935 650.576 92.9941 c 0
 650.5 88.5078 651.567 84.3682 653.501 81.0176 c 0
 656.338 76.1045 661.411 73.0127 664.709 72.1221 c 0
 668.908 70.9883 664.77 74.792 644.261 64.4453 c 1
 692.94 89.0059 l 2
 731.089 108.252 765.354 108.9 769.424 90.4521 c 0
 773.495 72.0039 745.839 41.4111 707.691 22.1641 c 2
 659.011 -2.39648 l 2
 639.157 -12.4131 590.632 -32.0225 552.984 -21.8545 c 0
 536.368 -17.3662 525.27 -8.75586 518.454 3.04785 c 0
 513.886 10.9619 511.393 20.3926 511.581 31.4268 c 0
 512.32 74.5938 518.273 118.971 529.495 163.857 c 0
 567.364 315.334 616.685 466.718 677.1 616.774 c 0
 686.789 640.839 724.779 669.682 761.899 681.156 c 0
 799.021 692.632 821.284 682.414 811.596 658.35 c 0
 752.522 511.629 704.151 363.229 666.967 214.491 c 0
EndSplineSet
Fore
278 633 m 0
 278 530 132 319 132 189 c 0
 132 122 166 79 210 79 c 0
 302 79 543 329 641 522 c 2
 677 616 l 2
 689.223 647.916 749 686 789 686 c 0
 803 686 814 681 814 669 c 0
 814 659 799 614 775 565 c 0
 722 420 651 194 651 101 c 0
 651 98 649 79 661 73 c 1
 693 89 l 2
 713 99 731 104 745 104 c 0
 758 104 770 99 770 87 c 0
 770 68 743 40 708 22 c 2
 659 -2 l 2
 628 -18 600 -25 577 -25 c 0
 537 -25 512 -4 512 30 c 0
 512 110 538 200 553 252 c 1
 415 104 250 -17 121 -17 c 0
 19 -17 -6 65 -6 127 c 0
 -6 264 139 490 139 570 c 0
 139 584 134 589 130 589 c 0
 71 589 57 555 10 555 c 0
 -3 555 -15 559 -15 572 c 0
 -15 618 118 686 220 686 c 0
 262 686 278 666 278 633 c 0
EndSplineSet
EndChar
StartChar: V
Encoding: 86 86 23
Width: 790
Flags: HMW
Back
189.871 503.43 m 0
 153.495 566.437 107.31 593.51 60.6211 593.51 c 0
 32.0732 593.51 26.543 614.175 48.2764 639.638 c 0
 70.0098 665.101 110.818 685.766 139.367 685.767 c 0
 193.354 685.767 262.847 667.51 315.651 576.049 c 0
 401.048 428.133 401.791 161.293 397.744 55.9209 c 1
 356.48 28.1143 323.336 8.50391 306.287 0 c 1
 265.617 -39.1436 l 1
 265.63 -37.583 265.818 -35.9297 266.191 -34.1865 c 1
 263.581 -46.3857 295.86 319.842 189.871 503.43 c 0
741.5 458.651 m 0
 742.773 462.148 743.654 465.062 744.35 467.843 c 0
 744.361 467.884 743.871 465.349 743.871 465.35 c 0
 745.389 480.281 728.463 514.824 686.904 529.95 c 0
 673.201 534.938 657.592 537.686 640.814 537.687 c 0
 621.732 537.687 615.934 570.839 627.869 611.687 c 0
 639.805 652.535 664.979 685.687 684.059 685.687 c 0
 704.342 685.687 723.188 682.407 740.148 676.233 c 0
 773.24 664.189 834.877 626.056 824.219 521.236 c 0
 822.68 506.116 820.139 493.326 817.096 481.155 c 0
 813.289 465.932 808.582 450.775 803.266 436.17 c 0
 744.236 273.995 797.68 421.555 797.562 421.261 c 0
 781.539 381.301 797.658 420.883 791.492 406.774 c 0
 774.295 367.416 791.592 406.462 785.113 392.738 c 0
 661.982 131.816 302.562 -67.3828 294.522 -71.3926 c 0
 272.973 -82.1406 260.754 -58.8799 267.248 -19.4717 c 0
 273.742 19.9375 296.502 60.6445 318.052 71.3926 c 0
 411.751 118.126 670.539 306.917 736.117 445.88 c 0
 739.654 453.378 737.406 448.638 738.258 450.587 c 0
 740.441 455.585 738.832 451.823 740.041 454.838 c 0
 740.344 455.594 682.471 296.477 741.5 458.651 c 0
EndSplineSet
Fore
269 79 m 0
 269 497 144 594 61 594 c 0
 44 594 35 601 35 612 c 0
 35 641 96 686 139 686 c 0
 347 686 399 399 399 120 c 1
 519 201 697 348 740 455 c 2
 740 455 739 450 744 466 c 1
 745 484 718 538 641 538 c 0
 628 538 622 552 622 573 c 0
 622 624 659 686 684 686 c 0
 766 686 825 635 825 543 c 0
 825 512 818 476 803 436 c 2
 792 407 l 2
 679 148 305 -74 285 -74 c 0
 273 -74 266 -61 266 -39 c 0
 266 -27 269 8 269 79 c 0
EndSplineSet
EndChar
StartChar: W
Encoding: 87 87 24
Width: 1248
Flags: HMW
Back
170.856 518.736 m 0
 140.044 572.107 100.606 593.51 60.6211 593.51 c 0
 32.0732 593.51 26.542 614.175 48.2764 639.638 c 0
 70.0098 665.101 110.818 685.766 139.367 685.767 c 0
 186.938 685.767 250.407 671.43 296.637 591.355 c 0
 356.712 487.3 364.559 302.413 359.891 168.591 c 1
 415.921 229.886 468.749 293.23 518.076 358.178 c 0
 576.294 434.832 629.446 513.467 677.254 593.332 c 1
 677.662 593.332 l 1
 672.274 604.02 l 2
 664.041 620.199 685.701 649.287 720.623 668.949 c 0
 755.545 688.61 790.57 691.437 798.805 675.257 c 0
 851.421 571.864 893.447 461.987 924.439 346.792 c 0
 947.576 260.793 964.501 172.053 975.12 81.0977 c 1
 937.642 41.8418 906.918 12.7656 892.155 0 c 2
 851.415 -39.2109 l 1
 842.052 71.0332 823.404 178.276 795.629 281.516 c 0
 773.832 362.532 746.471 440.881 713.716 516.12 c 1
 659.644 425.442 600.363 337.765 536.371 253.508 c 0
 451.362 141.579 358.357 36.0889 258.412 -62.1982 c 0
 235.907 -84.3291 217.394 -74.4268 217.088 -40.0928 c 0
 217.021 -32.6865 217.809 -24.7451 219.309 -16.6221 c 0
 226.531 54.6758 262.083 360.723 170.856 518.736 c 0
1198.72 452.14 m 0
 1200.94 458.253 1202.5 463.398 1203.61 467.843 c 0
 1205.59 475.732 1201.15 490.191 1199.26 494.828 c 0
 1189.16 519.649 1168.94 529.383 1159.47 532.83 c 0
 1150.89 535.953 1141.17 537.687 1130.43 537.687 c 0
 1111.35 537.687 1105.55 570.839 1117.49 611.687 c 0
 1129.42 652.535 1154.6 685.687 1173.68 685.687 c 0
 1187.88 685.687 1200.92 683.407 1212.71 679.113 c 0
 1231.04 672.441 1257.86 656.616 1273.63 617.892 c 0
 1294.24 567.249 1283.55 509.92 1276.36 481.156 c 0
 1271.98 463.641 1266.56 446.346 1260.48 429.659 c 0
 1173.43 190.482 898.479 -57.3955 889.571 -65.0986 c 0
 867.109 -84.5225 850.038 -71.1221 851.464 -35.1865 c 0
 852.891 0.748047 872.278 45.6758 894.74 65.0996 c 0
 988.11 145.841 1158.17 340.744 1198.72 452.14 c 0
EndSplineSet
Fore
35 612 m 0
 35 641 96 686 139 686 c 0
 264 686 361 582 361 239 c 0
 361 216 361 193 360 169 c 1
 478 298 588 442 678 593 c 1
 672 604 l 2
 671 606 671 609 671 612 c 0
 671 641 731 686 775 686 c 0
 787 686 795 682 799 675 c 0
 880 515 939 334 968 135 c 1
 1106 279 1204 434 1204 473 c 0
 1204 493 1183 538 1130 538 c 0
 1118 538 1111 552 1111 573 c 0
 1111 624 1148 686 1174 686 c 0
 1241 686 1286 635 1286 552 c 0
 1286 310 933 -27 890 -65 c 0
 883 -71 876 -74 871 -74 c 0
 859 -74 851 -61 851 -39 c 0
 851 26 815 284 714 516 c 1
 586 302 432 108 258 -62 c 0
 249 -71 242 -75 236 -75 c 0
 223 -75 218 -56 218 -36 c 0
 218 -13 231 81 231 197 c 0
 231 506 140 594 61 594 c 0
 44 594 35 601 35 612 c 0
EndSplineSet
EndChar
StartChar: X
Encoding: 88 88 25
Width: 865
Flags: HMW
Back
772.692 47.7061 m 2
 771.694 47.1299 768.779 45.2637 767.781 44.6875 c 0
 760.538 40.5059 752.992 36.4561 743.059 31.7559 c 0
 723.997 22.7354 672.899 0.0839844 611.715 0.0839844 c 0
 557.428 0.0839844 532.071 28.0566 517.81 52.7598 c 0
 501.508 80.998 495.414 115.359 492.949 132.532 c 2
 442.212 486.044 l 2
 438.551 511.553 431.772 536.47 420.95 555.215 c 0
 405.209 582.48 385.765 589.265 372.518 589.265 c 0
 352.45 589.265 335.982 588.982 326.093 587.953 c 0
 319.426 587.26 333.695 587.897 356.78 601.226 c 1
 356.778 601.225 367.208 605.444 358.246 597.994 c 0
 327.138 572.133 283.669 556.4 261.217 562.878 c 0
 238.766 569.354 245.793 595.6 276.901 621.462 c 0
 280.16 624.17 294.83 641.485 323.86 658.246 c 0
 351.603 674.263 376.487 681.169 401.591 683.781 c 0
 418.643 685.557 441.989 685.859 462.092 685.859 c 0
 516.379 685.859 541.735 657.887 555.997 633.185 c 0
 572.3 604.946 578.394 570.585 580.858 553.411 c 2
 631.595 199.899 l 2
 635.256 174.392 642.034 149.475 652.856 130.729 c 0
 668.598 103.464 688.043 96.6787 701.289 96.6787 c 0
 723.997 96.6797 736.176 102.447 736.426 102.565 c 0
 736.434 102.569 734.853 101.703 734.862 101.708 c 0
 735.86 102.285 738.775 104.15 739.773 104.727 c 2
 739.773 104.727 l 2
 777.046 126.246 814.671 130.938 823.756 115.2 c 0
 832.842 99.4629 809.966 69.2256 772.692 47.7061 c 2
 772.692 47.7061 l 2
64.9863 33.4619 m 0
 58.3359 44.9805 55.7373 59.415 60.2764 77.5703 c 0
 68.626 110.973 107.388 150.796 168.836 193.372 c 0
 202.459 216.669 239.146 238.183 257.18 248.595 c 0
 393.659 327.391 596.75 422.141 721.856 494.371 c 0
 753.814 512.821 772.938 525.285 784.906 533.578 c 0
 792.653 538.945 813.339 554.266 814.208 557.739 c 0
 815.178 561.62 815.833 567.74 811.923 574.513 c 0
 809.421 578.847 801.6 587.638 787.144 589.099 c 0
 785.93 589.221 787.828 589.265 783.963 589.265 c 0
 754.626 589.265 750.882 610.901 775.604 637.562 c 0
 800.326 664.222 844.2 685.859 873.537 685.859 c 0
 878.069 685.859 884.447 685.456 887.011 685.197 c 0
 912.579 682.613 935.308 672.683 946.97 652.482 c 0
 953.619 640.964 956.218 626.528 951.679 608.373 c 0
 943.329 574.972 904.567 535.148 843.12 492.572 c 0
 809.497 469.275 772.81 447.762 754.775 437.35 c 0
 618.296 358.554 415.206 263.804 290.1 191.574 c 0
 258.142 173.123 239.018 160.659 227.049 152.366 c 0
 219.302 146.999 198.616 131.679 197.748 128.205 c 0
 196.777 124.324 196.123 118.204 200.033 111.431 c 0
 208.059 97.5283 223.745 96.7295 227.991 96.6797 c 0
 257.006 96.334 261.072 75.042 236.35 48.3818 c 0
 211.627 21.7217 167.062 -0.648438 138.417 0.0849609 c 0
 127.755 0.357422 84.6719 -0.636719 64.9863 33.4619 c 0
EndSplineSet
Fore
140 0 m 0
 109 0 58 12 58 60 c 0
 58 119 128 188 461 357 c 1
 442 486 l 2
 427.863 581.98 386 589 373 589 c 2
 346 589 l 1
 322 572 293 561 273 561 c 0
 258 561 248 568 248 579 c 0
 248 590 258 606 277 621 c 0
 342 686 398 686 462 686 c 0
 510 686 564.875 664.982 581 553 c 2
 599 428 l 1
 740 501 812 547 814 558 c 1
 815 560 815 562 815 564 c 0
 815 580 797 589 784 589 c 0
 768 589 759 596 759 606 c 0
 759 638 830 686 874 686 c 0
 917 686 954 665 954 626 c 0
 954 562 859 488 609 358 c 1
 632 200 l 2
 646 104 687 97 701 97 c 0
 748 97 756 125 801 125 c 0
 813 125 826 120 826 107 c 0
 826 71 720 0 612 0 c 0
 564 0 509 21 493 133 c 2
 471 288 l 1
 374 238 284 192 227 152 c 0
 197 132 197 128 197 122 c 0
 197 107 212 97 228 97 c 0
 244 96 253 90 253 79 c 0
 253 48 183 0 140 0 c 0
EndSplineSet
EndChar
StartChar: Y
Encoding: 89 89 26
Width: 802
Flags: HMW
Back
387.676 -12.2744 m 1
 387.235 69.1582 380.914 332.636 290.787 488.742 c 0
 246.162 566.037 193.122 592.457 146.486 593.479 c 1
 121.363 571.644 85.0098 556.805 61.46 559.529 c 0
 35.6562 562.514 34.9482 585.459 59.8779 610.746 c 0
 73.0186 624.074 91.6514 639.687 115.891 653.682 c 0
 153.4 675.338 190.749 685.767 222.396 685.767 c 0
 322.26 685.766 380.512 623.814 416.567 561.361 c 0
 494.951 425.592 513.421 203.854 517.078 87.8164 c 1
 473.172 49.4756 428.838 15.6328 387.676 -12.2744 c 1
178.848 -26.376 m 0
 193.687 -31.7773 210.336 -34.6982 228.157 -34.6982 c 0
 305.05 -34.6992 665.456 212.379 752.529 451.603 c 0
 756.563 462.685 759.886 473.47 762.553 484.138 c 0
 764.739 492.887 760.405 505.642 758.562 509.838 c 0
 752.368 523.943 737.615 542.747 708.824 553.227 c 0
 696.059 557.872 681.504 560.447 665.792 560.447 c 0
 646.883 560.447 638.935 588.447 648.051 622.947 c 0
 657.167 657.447 679.912 685.447 698.821 685.447 c 0
 718.609 685.447 736.994 682.245 753.587 676.206 c 0
 796.911 660.438 817.405 629.665 826.728 608.437 c 0
 838.934 580.641 844.937 539.531 831.899 487.384 c 0
 826.983 467.72 820.946 448.249 814.021 429.222 c 0
 692.904 96.4688 284.33 -159.699 195.128 -159.698 c 0
 173.224 -159.698 152.729 -156.143 134.085 -149.356 c 0
 92.2422 -134.127 54.4443 -99.7285 39.043 -43.8613 c 0
 32.2676 -19.2832 42.8926 20.3135 62.7617 44.5244 c 0
 82.6299 68.7354 104.254 68.4385 111.03 43.8604 c 0
 123.649 -1.91309 162.356 -20.374 178.848 -26.376 c 0
EndSplineSet
Fore
37 -27 m 0
 37 9 63 62 92 62 c 0
 100 62 108 56 111 44 c 0
 122 3 163 -35 228 -35 c 0
 255 -35 315 -5 387 44 c 1
 376 360 291 590 146 593 c 1
 123 573 91 559 67 559 c 0
 50 559 42 566 42 577 c 0
 42 609 134 686 222 686 c 0
 441 686 501 380 515 143 c 1
 713 317 763 462 763 490 c 0
 763 513 736 560 666 560 c 0
 652 560 644 575 644 596 c 0
 644 641 676 685 699 685 c 0
 783 685 839 630 839 544 c 0
 839 526 837 507 832 487 c 0
 742 127 289 -160 195 -160 c 0
 82 -160 37 -67 37 -27 c 0
EndSplineSet
EndChar
StartChar: Z
Encoding: 90 90 27
Width: 863
Flags: HMW
Back
698.994 576.248 m 0
 603.165 576.248 512.472 583.818 422.819 583.818 c 0
 404.638 583.818 390.857 581.652 381.945 579.828 c 0
 367.921 576.957 359.699 573.291 359.416 573.128 c 0
 359.351 573.09 362.111 574.96 362.249 575.092 c 1
 356.404 569.509 350.416 556.289 348.027 546.732 c 0
 342.312 523.875 304.396 492.062 263.393 475.722 c 0
 222.389 459.381 193.748 464.67 199.462 487.526 c 0
 205.18 510.396 219.123 542.367 256.645 578.207 c 0
 273.027 593.855 296.695 612.594 326.646 629.886 c 0
 373.287 656.813 416.146 670.515 452.504 677.957 c 0
 478.816 683.343 503.116 685.62 526.064 685.62 c 0
 621.893 685.619 712.586 678.049 802.239 678.049 c 0
 821.415 678.049 839.997 680.169 856.861 683.692 c 0
 893.525 691.352 907.675 675.628 888.445 648.595 c 0
 869.216 621.562 823.854 593.406 787.189 585.747 c 0
 755.878 579.205 726.574 576.248 698.994 576.248 c 0
496.262 380.853 m 0
 589.816 458.834 679.662 542.722 764.855 631.914 c 0
 791.652 659.968 839.013 683.994 870.57 685.543 c 0
 902.129 687.092 905.993 665.579 879.196 637.525 c 0
 787.435 541.458 689.463 449.836 585.819 363.444 c 0
 446.743 247.518 302.695 137.172 154.318 32.9932 c 0
 116.956 6.75977 72.1592 -6.3623 54.3252 3.70117 c 0
 36.4922 13.7656 52.3418 43.2236 89.7041 69.4561 c 0
 228.815 167.13 364.512 271.032 496.262 380.853 c 0
705.499 42.0576 m 0
 661.112 16.4316 624.85 7.41504 608.733 4.25879 c 0
 596.206 1.80566 583.428 0.329102 569.576 0.329102 c 2
 171.688 7.90039 l 2
 141.161 7.89941 111.146 5.57617 81.1064 1.16699 c 0
 46.4053 -3.92578 36.5674 14.3662 59.1475 41.998 c 0
 81.7266 69.6299 128.215 96.1885 162.916 101.282 c 0
 201.548 106.952 239.619 109.69 276.008 109.691 c 2
 673.896 102.12 l 2
 678.576 102.12 680.539 102.641 681.128 102.756 c 0
 681.704 102.868 677.544 101.596 672.73 98.8164 c 1
 672.73 98.8164 668.89 96.293 669.298 96.6299 c 0
 684.823 109.433 702.432 141.814 709.131 168.61 c 0
 714.845 191.467 752.761 223.279 793.765 239.62 c 0
 834.769 255.961 863.41 250.672 857.695 227.815 c 0
 837.196 145.821 775.523 92.9609 757.438 78.0469 c 0
 742.683 65.8799 725.091 53.3691 705.499 42.0576 c 0
623.596 335.926 m 0
 623.484 336.119 633.898 327.867 633.889 327.869 c 0
 624.424 330.399 563.857 331.148 515.826 331.148 c 2
 346.329 331.148 l 2
 320.21 331.148 310.308 349.517 324.227 372.148 c 0
 338.145 394.78 370.64 413.148 396.759 413.148 c 2
 566.256 413.148 l 2
 623.981 413.148 683.413 413.404 706.87 407.135 c 0
 714.141 405.192 721.643 401.785 725.649 394.846 c 0
 727.291 392.003 728.437 380.833 727.463 376.938 c 0
 722.065 355.358 694.067 332.308 664.967 325.485 c 0
 635.867 318.663 616.63 330.64 622.027 352.219 c 0
 622.027 352.219 623.607 335.905 623.596 335.926 c 0
EndSplineSet
Fore
802 678 m 0
 836 678 855 686 874 686 c 0
 889 686 897 680 897 670 c 0
 897 661 891 650 879 638 c 0
 823 579 747 503 643 413 c 1
 715 411 728 405 728 381 c 0
 728 358 687 324 650 324 c 0
 631 324 650 331 547 331 c 1
 466 264 372 190 262 110 c 1
 276 110 l 1
 675 102 l 1
 689 117 703 145 709 169 c 0
 717 201 790 249 835 249 c 0
 850 249 858 244 858 233 c 0
 858 206 819.877 130.148 757 78 c 0
 726.941 53.0707 652 0 570 0 c 2
 172 8 l 2
 117 8 84 0 70 0 c 0
 59 0 47 3 47 16 c 0
 47 30 63 51 90 69 c 2
 99 76 l 2
 233 170 345 256 436 331 c 1
 346 331 l 2
 328 331 318 340 318 353 c 0
 318 377 358 413 397 413 c 2
 533 413 l 1
 609 479 667 534 710 576 c 1
 699 576 l 2
 603 576 512 584 423 584 c 0
 399 584 372 580 361 574 c 1
 355 568 350 555 348 547 c 0
 339.764 514.058 267 466 222 466 c 0
 208 466 199 472 199 482 c 0
 199 539 334 686 526 686 c 0
 622 686 713 678 802 678 c 0
EndSplineSet
EndChar
